<mxfile host="65bd71144e">
    <diagram id="zG2CM-yfQiSWuUvXVc4H" name="Page-1">
        <mxGraphModel dx="590" dy="599" grid="1" gridSize="10" guides="1" tooltips="1" connect="1" arrows="1" fold="1" page="1" pageScale="1" pageWidth="850" pageHeight="1100" math="0" shadow="0">
            <root>
                <mxCell id="0"/>
                <mxCell id="1" parent="0"/>
                <mxCell id="3" value="&lt;div style=&quot;text-align: justify;&quot;&gt;&lt;span style=&quot;background-color: transparent;&quot;&gt;Titular:&lt;/span&gt;&lt;span style=&quot;background-color: rgb(153, 255, 153);&quot;&gt; id_dni PK&lt;/span&gt;&lt;span style=&quot;background-color: transparent;&quot;&gt;, domicilio, telefono&lt;/span&gt;&lt;/div&gt;&lt;div style=&quot;text-align: justify;&quot;&gt;&lt;span style=&quot;background-color: transparent;&quot;&gt;Tarjeta: &lt;/span&gt;&lt;span style=&quot;background-color: rgb(255, 153, 255);&quot;&gt;id_numero PK&lt;/span&gt;&lt;span style=&quot;background-color: transparent;&quot;&gt;, tipo, &lt;/span&gt;&lt;span style=&quot;background-color: rgb(153, 255, 153);&quot;&gt;id_dni FK,&lt;/span&gt;&lt;span&gt;&amp;nbsp; &lt;span style=&quot;background-color: rgb(153, 255, 255);&quot;&gt;id_numero FK&lt;/span&gt;&lt;/span&gt;&lt;/div&gt;&lt;div style=&quot;text-align: justify;&quot;&gt;&lt;span&gt;Cuenta: &lt;span style=&quot;background-color: rgb(153, 255, 255);&quot;&gt;id_numero PK&lt;/span&gt;, saldo, fecha apertura, &lt;font style=&quot;color: rgb(0, 0, 0); background-color: rgb(153, 255, 153);&quot;&gt;id_dni FK&lt;/font&gt;&lt;/span&gt;&lt;/div&gt;" style="shape=note;size=20;whiteSpace=wrap;html=1;" vertex="1" parent="1">
                    <mxGeometry x="50" y="340" width="450" height="100" as="geometry"/>
                </mxCell>
                <mxCell id="5" value="" style="shape=image;verticalLabelPosition=bottom;labelBackgroundColor=default;verticalAlign=top;aspect=fixed;imageAspect=0;image=data:image/png,iVBORw0KGgoAAAANSUhEUgAAAdgAAAEqCAYAAAC2g0GLAAAAAXNSR0IArs4c6QAAAARnQU1BAACxjwv8YQUAAAAJcEhZcwAADsMAAA7DAcdvqGQAAKXHSURBVHhe7J13WBXH18e/dAFBEMUCoqJoBI2KDRW7UbH3JHajxhJ77C0mauzR2GIvMfauWLH3LnZBFAGR3ns97x+/u/Puzr00BQGdz/PMw+45Z/Yu9+7u2Zk5c0aLiAgCgUAgEAhyFW1eIBAIBAKB4NMRDlYgEAgEgjxAOFiBQCAQCPIA4WAFAoFAIMgDhIMVCAQCgSAPEA5WIBAIBII8QDhYgUAgEAjyAK2czoO9evUqEhMTFbI2bdogNTUVFy9eROXKlWFrawt/f388f/5cYde6dWtoa2vj3LlzTFaiRAk4Ojoq7AAgLS0N169fR0pKChwdHVG8eHEAwLlz56Cvr4/mzZszWyLC9evXkZCQgBo1aqBMmTIAgAsXLoCI0Lp1a2YLAHfv3kVkZCQsLS1Rq1YthY7nwYMHCAsLQ/Xq1VG2bFleLRAIBAKBZiiHWFlZEQBFISKKjo4mAPT7778TEdGWLVvU7BISEoj+59DVSmJiIvuM+fPnq+nd3NxY3VKlSjFbV1dXNdstW7YQEZGRkRHp6ekx2/v376vZamlp0fv375mNRHR0NGlpaSls+/bty5sJBAKBQKCRj+oi1tLSAhGxkhl+fn7MrkiRIkxuZ2cHIoKnpycAoF+/fgCA0NBQzJo1C+bm5qyel5eXWisUqlZux44dYWBgwGxDQkIwaNAg3hREhLp160JLSwuJiYkgIkRFRYGIYG1tzZvDxMQElSpVYsfV0dHBrl27eDOBQCAQCDTyUQ42N5G6XVNSUgAAc+fOBQC8fv2a2VSqVIlty1mwYAEA4N69e0xWokQJaGur/1s+Pj4AgHHjxsHAwAAAYGpqCicnJ87y/5Gfg0AgEAgEOUHdE2UDIoKWlha0tLQydH4S5cqVY7by1u7r16+hpaWFokWLAgD27dsHALh48SIAwMLCgtlmxPnz5wEAtra2vEqNp0+fAgB++uknhXzMmDEAgMDAQIVczuHDh5GWloa//vqLVwkEAoFAoJGPcrDyLuI3b97wagXyLmItLS1eDQAIDg5mrUpzc3NenSFS4FNSUhKvUqNkyZKArCUr8ezZMwCAkZGRQi7h6emJHj16oGvXrpgwYQKvFggEAoFAIx/lYHMDaQxWT08PlpaWTD5ixAgAwObNm2XWmpk8eTIAYM2aNbxKjZo1awIABgwYoJAvXLgQUHUX8zx48ABVq1bFkCFDcOTIEV4tEAgEAkGGfJSDJSJ069aNlcwYOnQos0tOTubVLMipb9++gCrYSVtbG8OGDUOTJk3QqVMnWFhYICEhgasJNG7cGADw22+/oV69eujcuTPKli3LjinH0NAQdevWRUREBCwtLdG1a1eYmJgAAAYPHsybw9vbG3Xr1gUAhIWFsf8hNTWVNxUIBAKBQB0+rDgrMpqmExQURABo3rx5RNmYpmNnZ8eOWatWLQJAgYGBTFalShXS0tIiLS0tsrGxoeTkZFZXPk2HiKhevXqkra1NAKhs2bLsOPw0HSKiP/74g4yNjQkAmZqa0q5duxR6iSNHjqidPwB2HgKBQCAQZEaOE01oIjExET169MCpU6dw//591KlThzcRCAQCgeCrIkcONqMgpa8JR0dHPHjwgBcLBAKBQKAgRw5WIBAIBAJB9vioICeBQCAQCASZIxysQCAQCAR5gHCwAoFAIBDkAcLBCgQCgUCQBwgHKxAIBAJBHiAcrEAgEAgEeYBwsAKBQCAQ5AHCwQoEAoFAkAcIBysQCAQCQR4gHKxAIBAIBHmAcLACgUAgEOQBwsEKBAKBQJAHCAcrEAgEAkEeIBysQPCRJCcn45dffoGWlha0tLRgbm6OXbt28WYaiYmJgYuLC7S0tLBx40ZeDQBYvHgx+vTpgz179oBf9Kp169b466+/FDKBQFCwEMvVCQQfSbdu3XD06FFerOYM5YSFhcHCwgLbt2/H4MGDmdzd3R01a9Zk+1evXkWzZs0AAMOGDcM///wDHR0dpm/ZsiUuXboEf39/lC1blskFAkHBQbRgBV89N27cwLZt2+Dr68urMiQ1NZU517Zt22L9+vVM16JFC6Slpcms/5/mzZtDS0sLI0aMUMinTJnCtlNTU5lzrVq1KjZu3AgdHR08ePAAVlZW0NLSwqVLlwAAHTp0wMGDBxEcHMzqCwSCAgIJBF8p169fJ2dnZwJAAKhs2bLk6enJm2nk33//ZfUePHhA9L9mKyvbtm3jqxARkZ2dncKuSJEiBIB0dXUpPj6eiIj27dvH9H379mV127Vrp6grL3Z2duTu7i77JIFAkN8IByv46ggMDFRzUPKSFRcuXFDYz5o1i4iIPnz4kOVxSpQoobCRO+r+/ftTSkqKQu/t7c3qxsfH03///Uf9+vUjAwMDhZ1Uzp8/r/g8gUCQf4guYsEXSUhICFxdXTFu3DjUrl0blSpVwk8//YRXr17h1KlTCltLS0v8+OOPCllmuLq6KvZ9fHwAAGXKlMGYMWMUOh59fX3FftOmTdn2zp078ezZM7bfqVMnVKhQge0bGhqib9++2LlzJ8qXLw8AcHJywoIFC9ChQwcAyLBrWiAQ5AO8xxUIChMJCQk0a9Yssra2VmvNfWzx8PDgP0YBb29mZkZERLt27VLINSHvIh43bhwRES1fvpzJqlatyrblrVceKysrAkC9evXiVQKBoIAgWrCCQsurV69gbm6O+fPn4/3797xaI1ZWVrxIjezYyLG0tERiYiL69u3LZD179lTYSKSnp7Nte3t7AEDHjh2ZzMPDAwBQqVIlReuVJykpCQCgpaXFqwQCQQFBOFhBoWTEiBGoVq0aEhMTmczW1hbz58+Hm5sboqKioIoxYOXly5fw9/dXHEcTxsbGvChTPD09YWhoyPZ37NiBAwcOKGwkoqOj2XabNm0AAFWqVEH//v1lVsDcuXMV+zzJycnAR5yrQCD4fAgHKyh0BAcHY8OGDWy/U6dOePr0KTw9PTFz5ky0bt0apqamijoAst3K/VQGDBjAi4D/9RkjJCQEAGBmZqZoof78889s28rKSjE2K+fWrVsICgpijlpLS0vxkiEQCAoOwsEKCh3r1q1j20ePHsXx48dRvXp1RSIGTXh7e/MiBWXLls00SURG/Pzzz9i9ezdrKWfEkydP2Hbbtm0VOmdnZ1b//fv3sLGxUeglFi9ejNKlS7P9rVu3wtDQEKVLl2bdywKBoGAgHKyg0CG1RA0NDeHi4sKrM6Ry5cq8SIE0JppTNmzYkK0o5Pj4eLYtd5I5ISPHq62tjYiICF4sEAjyEeFgBYUOaaqLkZGR2rSXzGjUqJFay1Fi/fr1cHNz48Uaady4MduePXu2QpcZZmZmbFuaZpNTVq1aBSJCs2bN0KtXLyQmJoKI8OHDBzg5OfHmAoEgHxEOVlDokLqCpUja7GJgYIDDhw+jU6dOCvnUqVMxfPhwhSwzRo0axbb79eun0GVGtWrVYGFhAagCsj6FixcvYv/+/TAwMOBVAoGggCCS/QsKHdOmTcPixYsBAOHh4TA3N+dNBAKBIN8RLVhBocPa2pptBwYGKnQCgUBQUBAOVlDocHBwYNsPHz5U6PISZ2dnaGlpYdOmTbyq0LJjxw68fPmS7T99+hS///67wkYgEHwcwsEKCh3yFuzdu3cVurxiwIABuHHjBqCallOxYkXe5LOxb98+dOjQAY6Ojhg4cCCvzjYuLi4YNGgQ7O3tYW9vD2dnZ9SuXRt37txRJMQQCAQfh87crFLGCAQFkCVLlgCqqTqDBg3i1TnCx8cHMTExKFasGK8CAPzzzz9YuHAhoJomExUVhcjISLi4uCicvRwiQvv27VGiRIkspwflhMePH6N169Z4/fo1AgMD8fjxY5QvXx61a9fmTbMkIiICp0+fBgCEhobCz88PRAQ9PT0QEXR0dFC2bNmPTscYGxsLNzc3XLp0Cbdv34aPj4+i90Eg+OLhkxMLBAWd9PR0luxeT0+PkpKSeJNsERUVRU5OTmRoaEi1atUiFxcX8vPz481IT0+PAFD79u0pODiYzMzMCACVKlWKXr16xZvTH3/8QSVLliSo1nu9ePEib0JERC9fvqQRI0Zkew1aIqIOHTqwxQDkJaP1Z7Ni48aNVK9ePSpfvrzaMQGQvr4+PXz4kK+WKc+fP6emTZtS8eLF1Y5XqVIlOnz4MF9FIPgiEQ5WUCjp0aMHe2iHhITw6myxcOFCNQfQoEED3ozpLly4QEREGzZsYLKRI0fy5mrHnD9/Pm9CUVFRVLp0aYJqHViJNWvWkJmZGY0YMUJhL2FnZ0cNGjRgx9bS0iIAtH79et5Uga+vLy9iPH36lK5evap23lK5d+8eXyVTunbtqnYMealfvz5fRSD4Isl3BxsdHU1RUVHk6elJhw8fpl9//ZVatmxJTk5OVKtWLapbty6dPHmSr5YrBAYGUr169ahmzZr04cMHXi0owKxatYo9sF+8eMGrs+S///4jXV1dAkBt2rShf/75hx1PzpMnT5g8LS2NiIiSk5Np0KBBavaLFy+mb775hgBQ3bp1mf6nn36SHfF/jB49mum7detGZ8+eperVqzMZZMvZyZk5cyadO3eO2dSvX5/atWtHkZGRvCkRETVu3Ji1JCtWrMirGXXq1CEAdObMGYqKiqI3b97QjRs36P79+5SamkqhoaHs/8+MO3fuUPXq1WngwIHUokULunjxIr1584Z8fX3p0aNHZG9vT1u3buWrCQRfJPnuYFeuXKl4qGgq5cuX56t9MsnJydSmTRv2GaVLl6bHjx/zZoICyt69e9lvd+fOHV6dKdHR0azuxIkTKTExkbZt28ZkcubOnatRfvv2bTW5tN+uXTsKCQlh+3/88YeiLhFRqVKlmH7o0KFUoUIFti8VCwsLvhoFBQXRkSNHmM0vv/xC4eHhvBkREU2ZMkVxvMWLF/MmDMlG01q4J0+eJAB09OhRXqVGVFQUxcfHs/9nwIABCr2mLnUiypbzFggKG/nuYHfu3ElDhw6lIkWKKB4G9vb2NG7cOPr3338pLCxMUWfLli3Url07qlevHlWtWpUcHByofv361KZNG5o2bVq2W6NhYWHk5+dHffr0IagedILCwfnz59m1sm3bNhowYAC1bt2aWrRoQS4uLjRlyhQ6fvy4xpbdvn37CACZm5tTVFQUvXv3jo2rTp06ldklJyezsVQrKyvFMS5fvsw+n4goJiaG7aekpNDLly8JqjFivgtb3r0NlSOFqoUpf3FwdnZW1CMiiouLo4kTJzKbEydO8CZERFS5cmVmY2ZmRm/evOFNFEi2qampvIqqVKlCyOBFQRMpKSlkZGTEjqlpXJuIyM/Pj+bMmUNly5YlAFStWjWNXe4CQWEl3x3skiVLKDIyktLT0yk5OZkSExMpLi6ON2N4enoqHk4ZlRUrVvBVM+TMmTMEgKpUqcKrBAWUu3fvst964MCBar+/vFSpUoWGDBlCK1asoJs3b9Ivv/xCAKhOnTpERDRp0iQCQIaGhgqHLO8eHj16NJM/e/aMqlWrxnRERBcvXmT7CQkJ5OjoSACodevWrB5x1++0adPYtqWlJb19+5Zu3brFZFOmTFHUJSIaMmQI0wMgW1tb2rVrl5oTl/ROTk7k7++v0PE8fPhQ8b/IuXLlCtNt3ryZV2skPDxccY7v37/nTRTs3LlTYf+xAVsCQUFD/Y76zIwYMULt4ZAZISEhtHXrVjpw4ACdOHGC9uzZQ1A9yA4ePEirV6+mcePG0aFDh/iqGfL48WOCqrUhKBx4eXmxB/KMGTPo2LFj9Ntvv1GXLl0U3a+aijTW6eDgQE5OTkw+efJkxWccPHiQ6U6fPk0fPnygnTt3sqhiAPTzzz8TEdHhw4fVjg+Azp49qzjm0aNHCarWaWhoKPXq1Ys6d+7Mhiek6xkA3bp1S1GXiGjWrFlMLy9FixalGTNmUHp6Ol26dInJM+o+lvPzzz8zezkJCQmK6OKMund53N3dWZ3KlStrbBUTEb19+5ZFg8sDzooVK0bx8fG8uUBQ6Mh3B9utWzcKCgrixdlGeluuVKkSr8o2UlSoaMEWHuRjnHxLLzk5mW7fvk3z58+nEiVKMDtkMt7ZoUMHSkhIUBxn06ZNTL9161a1OkuXLmW2mqJwu3fvrjgeEVFkZCQtX748w6k5//77LwEgGxsbXkVERKmpqaz7t2bNmjR8+HDatGmTYuxU3s28a9cuunr1Ki1dupQuXrxIz58/p8aNGxNUXcfNmjUjGxsbZu/j48OO4+vrq/h/suv0jh8/zuqsXbuWVzOkQC+p+13qpgdAgYGBvLlAUOjIdwfr6OhIAQEBvDjbpKenU/fu3UlHR4du377Nq7Pk1q1b7MaePn06rxYUUFJSUtgUlYymtEgEBgaSl5cXu85GjRqlcBzTp09Xc66kGuc1NDRU2ELl/DR9poODAwEgOzs7GjNmDEVHR/MmWeLh4UEAqFy5ctS0aVNq3749b0J79uyhwYMHU0REBK8iUrU8+XO+f/8+ERF9+PCBevbsqaaXF6nr/O3bt0zm6OhIx48fp//++4/+/PNP+vnnn2nnzp308uVLhePdvXs3G7MFQCVLliQHBwdq1KgR9e3blw4dOkSRkZEUGRlJpqamBIBcXFxo9uzZrM7gwYPZ8QSCwky+O9iSJUtmOUaUFdJ4XK1atXhVltjZ2bEb+/Xr17xaUIApWrQoAaB+/frxqkyJioqiCRMm0MyZMzX+5j/88AP17t2bNm7cSF5eXjRv3jzq0aMHmZmZUdu2bXlzBU+fPuVFOcbf35+99GlqBWeHQ4cO0ahRo2js2LF0/PhxXk0nTpygX3/9lXXRykvPnj2ZnTRXN7Ny+fJlZi9NU8qojBs3jkJCQlgQGADS0dFR2IiIYsGXQr462LCwMDI2NlabBJ+amprhuE1G/PbbbwSA5s2bx6syRbqpNSUDEBRsrK2tCZxDyA4XLlygHj160NChQ+ndu3cKHd99bGBgoDbPNjExkfbs2UP9+vWjRYsWKXQfy6FDh2jIkCF048YNIlXQ1O3bt1nLOiwsjGbPnk39+vWjqVOnqt0zn0JaWhpFRERQQECAWsT+ixcv2BxZvvz000/08uVLhX1oaChZW1tTqVKlaMCAATRo0CCaOXMmrVmzRjENLi0tTfFyC4B69eqVZ3PeBYL8IF8drJeXF+nq6pK3tzeFhYXRjh07yNnZmd1wNWvWpKtXr/LVNOLt7U1Qdc9lF3mgTG4+sASfBymSt1u3brwqQ7Zv3654qP/www8KveRM5A//06dPK2xGjBihOManMnjwYHasChUqaBx/HDdunOIz7ezsPltLLyEhge7evUvHjh2jQ4cO0dOnTykmJoY3Y6xcuTJb3eNXrlwhc3NzsrCwyLUXFYGgIPHpT4dPQJqsf+7cObWuKm1tbYIql2t2EkBI8xCNjY15VYbIH1qCwoeUMrBr1668SiOpqalkYmKiuM4AKFqxM2bMIADUsGFDGjp0qFqawNDQUFbv999/pz///FPjWOg///xDlStXVmsR8kjXYLVq1Wj8+PFUr1492rNnj8Lm9u3bpKenR+XKlaPNmzfT8uXLaejQoTmKvpfQNNac36Snp/MigeCLIF89y6lTpwgAPXnyhI4dO0bbt28nNzc38vT0pJiYGAoNDaVNmzbx1TQiD+zIztQEIlKksxMUPlq0aEEAqFWrVtkex5dHqkrl0aNHTH/o0CEmr1atmqIuEdGOHTuyvGaePn2a7WtRmtKTWaCflHGsRo0avCpH/PXXX2RlZZXtXiGBQPBpZPyU+AxID6vMUt1l9+3Wx8eHAJCpqSmvypDJkyezB2HVqlWpWrVq1KdPn2zP9xPkLx07dlQ4ypo1a9LQoUPp7NmzGpOVvH//ntlKkbTGxsaK5BKvX79mNpUrV1bUJyI2pcXc3JwGDRpE586d401Ypqasuq7T09PJ2NiYoEo04eLiojZ9Jzg4mJ2Pvb19hivbeHh4kLOzM5UtW1bj58qvdWh4OVixYgXNnDmzQLZwBYLCivqd9hlZunQpgYtC/FjmzZtH0JDSLivkDx0AtGzZMt5EUEDp1asXAdC4LBoAWrBgAZ0/f56uXr1Ke/fuVcsYBIDGjh3LH5bp+BzY8uxRw4cPp8aNG1Pv3r0VNiSrz4/d8sjTK5YtW5asrKzUsiXJkzZIZdSoURQcHKywk6dPhAYHyh9Djnx1IE1jqxcuXMjWmKpAIFCifid+Rvbs2UPFihWjt2/fKuQhISH06NEjevfuHaWkpCh0PElJSTR16lT2gBg0aBBvkimvX7+mixcv0qVLl9QiIgUFGylFoouLC127do3atm2r5kikoqurS25ubgqZnp6exmk6kv6bb75RyNevX88+LzOk+sePH6eNGzfSokWL6Pjx4xQREaGIjpc7T6nlyPfYSNmkihcvTi4uLlSmTBkqWbKkIrnGzp07SUtLiyXlB+dA5S13Xj927Fgmkw/H/PbbbxQWFsYWOyhevDglJyczvUAgyJp8dbCkChqR8PLyUiwDBlUKtcyYOXOmwp5/sxd8uQwfPpygWghd4uTJk9S5c2c1h7JhwwaKj4+nWrVqMVmbNm0Ux5OQ9HyE8ffff09QtYwzg/9sqXTv3l3RQvz777+Zbvjw4YpjSEjXd6dOnXgVkSphPlRzSaWpauAcrDwVIq+X9vnpbQAoKCiIVqxYwWxE97FAkDPy3cFKTJo0SbGijp2dHR06dIiSkpIUdgkJCfTrr79S7969qVKlSsze1NRUEawi+PKZPn06QYMjJNWLm7u7O71+/VoR5ZuYmEgnTpygS5cuUWxsrKKOhHRN8VNHzM3NCaqk9+/fv8+w21Sqb21tTU2aNKGePXvSmjVr1D6va9eubAwWqjFkPjF+v379CADNmTNHIZeQUjiWKlWKJWyQrwgk7/6dM2cO2/7w4QP17t2b7csdvzTu+/r1a5aLuGbNmmqta4FAkDkFxsG2bNmSoEoRt3fv3gzn+PH5UaFa7kuaoC/4eti8eTNBtSZqbiJdVxcvXtQolxc9PT3666+/FBmc7t27p5acIiPCwsLI39+frly5onGZxSZNmhAAOnDgAK8i0jD26uzsrGhpSvIBAwYo1raVZ1yqX7++4pirV68mqFq1kg2/aIFAIMgaLfrfTZjvJCYmIiEhAebm5rxKQWpqKvbv34/AwECEh4fD1NQUQ4cOhZ6eHuLi4pCQkIDo6GjEx8cjIiICsbGxSEpKQnR0NJKSkhATE4PU1FQkJiYiNTUV6enp0NbWhq6uLrS1taGjo6PY19PTg56eHgwMDGBkZIQyZcqgSpUqqFSpErS0tPjTE+QBJ0+eRIcOHXgxLly4gNatW+P333/HnDlzePVHs3DhQjx8+BAHDhxQyKXfu0ePHoiMjAQRwdTUFF26dEG9evWQmpqKhIQEBAUFITY2Fr6+vkhISEBaWhpSU1PZXyKCiYkJzMzMUKpUKRQvXhzFihVD8eLFYWZmhmLFisHIyAhaWlpo06YNnj17hvPnz8Pe3l5xPgAwYcIErFy5EgCgp6eH9+/fw9LSEgAQGBiIMmXKAABCQ0OxZs0azJ07V1G/U6dOWLt2LcqVK8dkzZo1w9WrV2FmZobIyEi0b98eJ0+eVNQTCARZU2AcbEYkJSUhKCgI4eHh+PDhA0JDQ+Hr64uAgAB4eHjAx8cHXl5efLU8Z+LEiVi6dCm0tbV5lSCXGTx4MPr164f09HTEx8ejQoUKsLOzg4+PD+zt7bFz507069ePr5YjiAjx8fGIjo5GZGQkEhMTERkZiYSEBISHhyM+Ph5PnjyBv78/TExM8OHDB1y7dg3Jycn8oXKFkiVLonHjxqhRowaqVasGa2trlCpVCiVKlEDx4sWZXVRUFP78808YGBjg119/RbFixZhu48aNGD58OP744w/Mnj0b27dvx+DBg5keqv+bZ9CgQdixYwfbf/jwIWrXrq2wEQgEWfNZHGx8fDyaN2+O4OBgaGlpQVdXF/r6+tDX12ctRD09PWhra7MHXUREBIKCghAdHc0fLtsYGBjAxMQEenp6MDIygq6uLgwNDaGrqwsDAwPo6uqCiJCSkoK4uDgkJyezFm9UVFSWD8/Lly+jWbNmvFiQi0yYMAHbt29HZGQkr0KpUqUQFBQEBwcHFC9eHOnp6UhPTwcRqW1rkqWmpiIuLg5xcXGIioriD59r6OjooEiRItDX14eBgQGICGFhYUhNTeVNs4WBgQFKliwJS0tLmJmZwdLSEmXKlEHFihVRq1YtFC9eHNbW1jAxMUFAQACsrKwAAO/evUPFihUBAPXq1cPs2bPRqVMn7uiAt7c3Ro8eDQsLC/zyyy9o0KABbyIQCLLBZ3GwAPDmzRu0atUKPj4+vOqjsLa2RvXq1VG2bFnY2tqiRIkSsLa2hrm5OcqUKcO63D4FIkJkZCTrUo6JicGzZ88wY8YMmJiYwNXVlT28BHlDeno6nJ2dMXr0aADAixcvcObMGTx48IA3zRdKlCiBBg0awNLSEvb29ihevDhsbW1hamoKGxsbmJmZQVdXl6+G1NRUhIWFISAgAIGBgXj//j08PT3x6NEjXL9+HYmJiXyVj8LFxYUNfRgbG0NHRwf6+vpwdHSEjY2NRgcrEAhyh8/mYCUCAgIQEhKCiIgIxMfHIzk5mRX5G722tjaKFSsGU1NTFCtWDMbGxjAxMYGRkRFMTEzytWs2LS0N2traYgz2M1GzZk2sWLECLVu2ZLL4+Hj4+/tjxYoVqFGjBrS1tRXXklSSkpKQkpKCtLQ0pKenK/4SEfT09FiPiomJCYoVKwZzc3PW+2FgYICiRYtCT08PxsbG7G+RIkVgbm4OHR0dxbnmFhEREQgPD0dYWBgCAwMRFhaGoKAghISEICYmBgkJCSzmICgoCL6+vggLC+MPkyWGhoaoVq0aGjVqhFKlSqFt27YoVaoUbGxseFOBQJBDPruDFQhyio2NDf766y/07NmTVwlkvHv3DhcvXsTLly+xfft2hIaG8ibZpmXLlvjxxx9Rs2ZNfPvttzAwMOBNBAJBFggHKyjwGBkZ4e+//8awYcN4lSATYmNjERYWxgKZkpOTWa9RTEwM3r59i0uXLiE8PBxPnz7Fhw8f+EMAAIyNjfHNN9/A1tYWJUuWRNmyZdG8eXM4OjrC0NCQNxcIBCqEgxUUaCIjI2Fubo4FCxZgxowZvFqQi4SEhGDDhg04ffo0bt68yavV+O6773Du3DleLBAIVAgHKyjQPHr0CI6Ojvj555+xYcMGXi34DLx//x7Pnz/H8+fP8eLFC5w4cQLBwcEAgO7du+PQoUN8FYFAIBysoKBz6dIltGzZEr1798a+fft4tSAf8PT0RNWqVdl+QkICihQporARCARA/oXiCgTZ4PXr14DqoQ5V9qYuXbrg22+/ZVmcjhw5gpcvXyIyMjJbgT0xMTHw9fXlxYJsUqVKFYVDTU9PV+gFAsH/EC1YQYHmzz//xMyZM2FtbQ1PT08YGRnxJgxDQ0NUrlwZ1apVg52dHVq2bKmY2kNEmDBhAjZu3IiEhAT06dMH06ZNQ40aNRTH+RLZsGEDUlNT8csvv/CqHBMdHc0yRunp6WWZkEUg+GqRkhILBAWRnj17soTz0trAd+/epR07dtD06dOpW7duVKJECWajqfz+++9ERFSlShU1HQA6fPgw96lEO3bsYHpLS0tat24db5JvREVFZXtZRlNTU7X/18zMjDfLEdeuXWPHmj59Oq8WCAQqRBexoEDz/v17tp2SkgKo0vwNGDAAf/75Jw4fPgwfHx/cvn0bffr0QalSpdCuXTuYmJiwelevXsWrV6/g6ekJc3NzliBEyg7FR8KOHTsWAwcOZPvBwcEYNWoUli5dys4hv/jw4QNq1KiBOnXqICQkhFcriIqK0phqNDIyEh4eHrw427x48YJtOzg4KHQCgUAG73EFgrzA39+fXFxcyNvbm1dlirzlFRYWxqsV9O3bl5DBwuCpqan08uVLIiIaPHgwAaCRI0cSEaktEyd9XqNGjTS2jj+G8PBwMjIyou+//55XZRsfHx+1c4mPj+fNiIjowYMHzGbEiBFMbmlpyeR37txR1MkuHTt2JABUpkwZXiUQCGSIFqzgs+Dq6orTp09j9uzZvCrXCAoKAlRpFHl0dHTwzTffAABsbW0BgLXipCXd5OzYsQM3btzQ2EoMCAhg29kN8Hnx4gXi4+Nx4cIFXpVtli1bxosyTA7x+++/s+0JEybgzZs32LNnD5teAwB37txh2zkhMDAQAFCrVi1eJRAI5PAeVyDIC+StLvni5Fkhr5eamsqrFejo6BAA8vT05FUKbty4wY4ZExPDq+nZs2dsOyQkhNlK3Lp1i4iInJycFPLMmDVrFjtOcnIyr84SNzc3Vr9t27ZsW9P4Mcm+t6ioKMXi6lLp1KkTXyVbvHv3jh1j6dKlvDpb9OvXjwBQz549eZVA8EUhWrCCz86TJ094UZZYWlpmmlg/OjoaaWlpgGpeZmaUKFGCbd+4cUOhAzeuqGkM08nJCQBw+/ZtXpUhfn5+bPtjAvcvX77MtidNmsS2NbVg3759y7bv3LmDV69eKfRt2rTB8ePHFbLscu/ePbataQH4rDh+/Dj+++8/gBvLFQi+RISDFeQ5u3fvBgAcPHgQANC3b1/OImucnZ15UYbExcXxIgWVKlVi20OHDlXocgMtLS21lZYkR12qVCno6+srdNlh8+bNAIC2bduibt26TC53eBJ9+vRh28bGxgodEeHs2bMKWU6Q54OuV6+eQpcV69atQ5cuXVCqVCmAe+kQCL5EhIMV5Cmenp4YMGAAWrVqhe+++45XZ5vSpUvzogxJSkriRYBqDVaoxmObN28OqKKUM1vmTd7albdmIyIi2LZc1r9/f14MyCKgP2b94GvXrrHx5XLlysHMzIydF/8y4enpqRhbbdSoEerXr8/2P8Wp+fj4sIXvLSwsULJkSd4kU6RWc6tWrQBVwg+B4EtGOFhBnlK1alWkpaXh/PnzMDU1ZXJNXa+ZkVUyCGndYGTS9di9e3e0aNEC06ZNU7QCM1sRRn7O9+/fZ9vyLlsACA0NRfHixVn355o1axT62NhYAGCBVtklOTkZTZs2ZfubN2+GlpYWy1glD7iCyhnzyB2ujY3NR/UgAMDevXvZ9saNGxW6rHB2dsbZs2cxf/58xXfDd18LBF8SwsEK8gwpvWHXrl15Fc6fP8+LMsXCwoIXqVGuXDlA9rk85cqVw+XLl7F48WJFRG67du1w69Ytha0mMmrpPnz4EN9//z3bd3JyUuxD1tIsWrSoQp4V796940UKoqKiFPvyKGE50pxfyLrsc4r8BaNhw4YKXWZ4enqyse6hQ4dCV1eX6TRFaQsEXwrCwQryjNWrV+Phw4c4cuQIk0kJ+3v06JGhw9KEfNw0I6pXrw4A8Pb25lUAgLVr18Ld3R39+vVTyK9du4Zp06bhn3/+Uch55N2r3bp1Y9t16tTBxYsXAQC9e/fGrVu3FF3LkE1tMTc3BwDcvHkTPXv2hLm5OZo1a6aW7EJiyZIlbPvq1auIjo4GEWHq1KmAbGqShI+Pj2JfYvXq1QgPD2f7Wlpa+PvvvxU2WfHo0SMAQP/+/TVObcqIx48fA6qpWqVKlVLkMXZ3d5dZCgRfFsLBCvKM2bNno3bt2gqZPFhJU4BORtjY2PAiNcqWLQsACkfCU7NmTezcuRNeXl54+PAhXr58CT8/P1y5cgUjR47kzRXwAUM8Q4YMwb///suLAdl8WS0tLfzzzz9o1aoVDh06hMjISFy9ehUuLi4aXzjOnDkDqFqMTZo0YRmqpFagtrbyFtZ0DAlzc3M4Ojqy/fHjxyv0mREbG4s3b94A2XzZkdOpUye4u7ujQ4cOgCp/saWlJZCDecQCQaGEn7cjEOQ1q1atIgBUvnx5XqUgLi6OANC3337LqzSyc+dOAkAODg686pOQ5n1mRFpaGi9SQ9NcVL507NhRUadmzZpMt3btWoVuzpw5BIDKlSunkJcvX57V+e+//xQ6iUuXLjGbQYMG8WqNTJ8+ndV5+PAhr84xp0+fJgB0//59XiUQfDGIFqzgs9O4cWMgk+5MCWk8MbuRt1ILlm/VfSqrV69Go0aNeDEjO58njQ9L6OrqYsWKFfD19cXJkydRu3ZtuLi4ML2fnx/rWgWA1q1bs23IopjLly+vkMu/U+l75pEiqAFg+/btePr0qUKviV27drHtnHQPZ0Tz5s2ho6ODChUq8CqB4MuB97gCQV4THh7OWkOZceTIEQJAEyZM4FUaOXr0KAGghQsX8qoCwfXr12n//v3ZavGGhYWRg4MD1alTh1cREdHq1atJR0eHXrx4oZAPGDCAANChQ4cUcp6DBw+y36Bp06a8WsGZM2eY7ccUZ2dnmjlzJp06dYpCQ0PZcVetWqX4HIHgS0OsByv47KSmpkJPTw9A5lmN1q5di9GjR2PevHmYNWsWr1YjODgYDx48gLOzs2I1ncJKUlISUlNTNY79EhGISGPr+dmzZyzgKyP8/f1hbW3N9jP7HdatW5cr68hKNGvWDF27dkWDBg1Qv379TDN0CQSFGfW7UyDIY16/fo3JkydrTNYgR5prKo9CzgxLS0u4uLh8Ec4VAAwMDDQ6V6iCpTQ5V8iiqTPDysoKT548gY6ODrZt28arFRw9ehRQLZIgOXZ5SUtLQ2pqKlJSUpCWlsbkb968gZubG1atWoUOHTqw871y5QomTJiARo0aQVdXl2W+0tLSQoUKFbBs2TK4uroiMTGROxOBoHAhWrCCz05cXJxGxxEdHY22bdvi9u3bWLduHVauXMnmtDZu3BjHjh3L1nxYQe5iZ2cHLy8vDBkyhKVs/BiSkpIQFBSEDx8+4NWrV/Dy8sKLFy9w9+5d+Pv78+aAKtFHuXLlYGJighIlSsDQ0BB2dnYoW7YsHBwcYG5ujvLly6NYsWJq6SkFgvxGOFhBgeDWrVvo378/mwoiTfHp2bMnm8oxYcIE/PXXX1xNQV6SmJjIMl0tXbpUsdBAbkFEePXqFQ4ePIhbt27h9OnTvEm26NOnDxo1aoRKlSrBwcFBLbBMIPjcCAcryFdSUlJw7Ngx9OrVi8kaNmyIkydPwtzcHO/fv0ebNm3w8uVLGBgYsHSHTZs2RdWqVRXHyoz09HQkJycjOTkZ4FIgCjLm8OHD6NGjBwDg4sWLaNGiBW+S60RGRiIyMhJv375FeHg4vLy8EBkZiTdv3iAkJAR37tzJVvexsbExKleujDJlyqBWrVpo0aIFmjdv/lGLLQgEH4NwsIJ8pVmzZrh69Srb//vvvzF27FiFjZubG9q0aaOQQZV2b9GiRYpu47i4OAQGBuL169d48eIF7ty5g1u3bqklubewsMCPP/6Irl27onbt2ihevLhCL/gf/fv3Z/mV3759i4oVK/Im+UJISAju378PPz8/nD59Gk+ePFEs05cRnTt3xsKFCz9qqT2BIKcIByvIF9zc3LBy5UqcOnUKAODo6IgffvgBkydP5k0BVdanoUOHalxLtnz58khNTUVERATi4+N5dZbo6uri22+/ReXKldGlSxe0b98eZmZmvNlXR0REBEqVKoWUlBQULVoUYWFhBbr1FxkZibCwMERFRcHX1xfe3t5snPfmzZus9wKqFI01a9ZU1BcIchvhYAWfHW9vb9ja2ipk2b0Mg4KCcOLECcW6pNlFW1sb5ubm0NXVVcvhy2NqaooxY8agatWqqFq1KgwNDWFubg4DAwNER0cjMTGR/Q0PD0d8fDxCQ0MRHx+PoKAgxMTE4MOHDwgMDERsbCxsbW1hbW0Na2trWFpaokaNGqhZsybLTVwQuXbtGlvJ51MDnPKbV69eYdGiRdixYwcAYNmyZfj11195M4EgVxEOVvBZ6dGjB06cOMHWR509ezYGDx6c467HhIQEXL16Fbdv30ZISAib0mJiYoLixYvDysoKlpaWKFGiBMzMzGBoaMimhECVrzggIACvXr3C06dPWVcyvzpNXlOpUiXY2trCysoKDRs2RNOmTXO8pF1esXHjRgwfPhxQTZXStCpSYeP8+fP47rvvULFixWx1KQsEn4Qs6YRAkGf4+PhQ7969FRl+tm/fzpvlK5GRkbR69WrS19dXnOfnLnXq1KH9+/fzp/fZkfIdA6BHjx7x6kJJbGws+5/c3d15tUCQq4gWrCDPuXHjBr777jskJCQAAH744QesW7euQHePRkVF4d27dwgNDUV4eDgSExMRFRWF5ORkmJqaQk9PD0WLFoW+vj6MjY2hr68PIyMj6OnpsdZykSJFoK+vDx0dHSQkJLASHx8Pb29vPH/+HD4+PvD29sbjx48RGRmpOAdTU1M4OzujVq1a6NixI5ycnD7rXE95gFNwcDBKlizJmxRKatasiSdPnmDq1KlYtGgRrxYIcg3hYAV5SqdOneDq6sr2vb29RYJ3DURHR+P06dP4888/NQZyQRX5vGjRIgwdOpRX5QmdO3fGiRMnYGRkxBaM/xL45ZdfsG7dOlhaWmY5Fi8QfAqac60JBJ/I2rVr0aZNG+Zcp02bhufPnwvnmgGmpqb4/vvv8eDBA3h6emLz5s0YNGiQYjw2LCwMw4YNQ/HixdG9e3esX78+WyvhfCxSj0NOx8cLOlIvwMdEnAsEOYLvMxYIPoWkpCSaMmUKG+eytbWlU6dO8WaCHHDjxg3q2LGj2litVEqUKEELFy6kgIAAvuon0ahRIwJA7dq141WFmv79+xMAqlSpEq8SCHIV0YL9gklKSkJ0dDSSkpJ4Va6TkpICV1dXdOzYEUuWLIGNjQ0GDhyIFy9eKNY5FeScRo0a4cSJE/Dy8sKGDRvQu3dvRRrA0NBQTJ8+HWXKlEGnTp0wevRouLm54f79+wgMDPzo7l2phWdpacmrCjXSWPeX9n8JCiC8xxUUfmJjY2njxo2KVs7SpUt5s1xl7Nixis8T5C2JiYl06NAhatOmjVqLVlNp2rQpjRgxgg4ePEi3b9+m8PBw/pBqVKpUiQDQr7/+yqsKNY0bNyYA1KlTJ14lEOQqIsjpCyIsLAx37tzBgAEDEB0dje+//x4mJiYIDAzEtWvXYG1tjVmzZrHcsrnBiRMnMGnSJHh6ekJfXx8DBw7E/PnzRevgM+Lr64vHjx/j1KlTuHPnDl6+fJmtXL26urqoVq0aTExMYGlpCWNjYxAREhISEBwcjBs3bgCq8fRRo0bx1QslRAQLCwtERERg5MiRWLduHW8iEOQawsF+QUjBG9OnT8f48eMVTs7d3R21a9cGAKxcuRLjxo1juo8hPj4ew4YNw+7duwFVIMytW7dQqlQp3lSQD+zbtw8+Pj44cuQI7t27h7S0NN4k27x79w7ly5fnxYWSmJgYttDDokWLMHXqVN5EIMg1hIP9Ati6dSu2bdsGIsIPP/yA0aNH8yYAgDdv3mDQoEG4fv06Jk6ciFmzZuV4LioR4f79+5gzZw7OnDkDU1NTjBo1Cr/88gusra15c0EBwdfXF5GRkfD09ERAQABev36NhIQEREREICkpCVFRUazVW6RIERQrVgwODg7o3bs3HB0d+cMVCogInp6e8PDwwP379+Ht7Q13d3c8e/YMALBw4UJMmzaNryYQ5B58n7GgcOHq6koASE9Pj1dpJCYmhnr06EEAyMzMjN68ecObZMquXbsUY3uXL1/mTQSCfCU1NZUWLFhAJiYmamPRUgQxADp//jxfVSDIVUQUcSHmxx9/RMeOHfH333+rLceWEUWLFsW+ffswYcIEREVFoWvXrnBzc8sy0jg+Ph4zZsxgSfZ79OgBf39/NGvWjDcVCPKFly9fYsiQITA1NcXMmTMRExMDIyMj1K5dG6NGjcLFixexefNm7N+/H7a2tnB1dcXz588RGhqK1NRU/nACwafDe1xBwSchIYGGDx9O+MTo4C1btrC3+R49evBqBaNHj2a2BSFPrkAg5/jx44qWaqlSpWjVqlUUHR3Nm9KPP/6o1rI1NjamIUOGkJubG6WmpvJVBIKPQozBFjJiY2PRpEkTuLu749q1a3B2duZNcsTBgwcxb948PHnyBO3atcPUqVPRvHlzpo+IiMD48ePx77//onjx4pgwYQJmzZqlOIZAkB/Exsbi5cuXGDlyJB48eACo8gwPGDAAw4YNg4mJCV8FAHD//n0MGzYM7u7uvAoAoKOjg/bt26NatWooVaoUrKysUKZMGZQoUQLGxsYwNDSEkZERDA0NoaOjw1cXCP4f3uMKCi7h4eHUtGlTMjY2pmvXrvHqT6Jfv37sbX7evHmUnJyskNvY2FBQUBBfTSDIN/hW6G+//cau2+zw4MEDmjhxIjk5OZGOjo7a8bJT7O3tafbs2eTj48MfXiAQLdjChJOTE+7cuZMnCfNjYmKwevVqrFu3Dv7+/mjTpg0sLCywZ88eODo6YvXq1WjUqBFfTSD47CxevBi7d+9miyI0adIE3bt3x/jx43nTbBMREYHnz5/j4sWLuH//Pj58+ICQkBAEBQVlGZ8gUbZsWfTs2RM2Njbo1KkTSpcuzaYECb5OhIMtJPz++++YO3cuDh48mKuJInjev3+PJk2a4N27dwAAe3t7PH/+nDcTCD47AQEBmDt3LjZu3MhkeT2XNTU1FX5+fvDw8ICHhwfevXsHLy8vPH/+HN7e3ry5Gtu2bUOrVq0UqS0FXw/CwRYChgwZgq1bt8LNzQ2tW7fm1bnOli1bMHToUGhpaYGIMHDgQPz666+oUaMGbyoQ5Dnp6enw8PBAw4YNERUVBQCoXLkyjh07Bnt7e978s5GcnIygoCC4u7tj69atiI6OxuvXrzVG9E+aNAm1atWCi4sLihcvzqsFXyp8n7GgYHHt2jUCQOPHj+dVecbp06fp9OnT5O3tzVZUAUCrV6/mTQWCPEfKHSyVvXv38iYFiqCgIOrevbvaeK1UGjRoQO/fv+erCb5AhIMtwBw4cIBMTExo1qxZ+TZ1wN/fn5o3b06mpqYE1XSed+/e8WYCQa7z5s0bmjZtGnNMDg4O9Mcff/BmBZbg4GCaM2cOtWzZkoyMjNQcbdu2beny5csiQOoLRnQRF2Ck3MIF4Sd6+fKlojtuyZIlmDx5ssJGIMgtkpKSUKRIEbZfqVIleHl5KWwKGxcvXkSrVq14MQDg119/xdy5c1G0aFFeJSjEiExOBZCkpCQMHDgQNWrUwL1793h1vlCtWjU8f/4cXbp0AQDMnj0bf/31F8LCwnhTgeCT2L9/v2J+d9WqVeHn54fk5GQAQHR09CctXpBftGzZEuHh4Th37hycnJwUMwGWL18OR0dHzJgxA0+ePEFMTIyirqCQwjdpBfnPjBkzqCD/NP/++y/r5rK1taXY2FjeRCD4KA4dOqToRl2zZg3bvnz5Mjk4OBBU87K/BDZt2kQ1atRQ6z4GQCtWrKDIyEi+iqAQUXCf4l8hYWFhBIDKly/PZGlpaQobJyenAjEOlZCQoEg5V7t2bd6EiIg8PDx4kUCgRmJiosK5VKhQgel4xyOV0aNHK45R2Nm+fTtZW1ur/Z8AyNnZmZ49e8ZXERRwRBdxAeLff/8FAMyfPx9QrcPZokULpo+NjcXt27dhZmbGZPlFkSJFsHv3bgwcOBAA8OjRI0yZMkXRtXXkyBFUrVo1T+ftCgo/MTEx6Nq1K9vv2LEjrl69CqjmoWbEmjVr8OjRI15caBk4cCD8/PwwceJEXoXr16+jevXqGD9+PCIiIni1oKDCe1zB50dKum9sbExxcXFMfvPmTcVbbNOmTQmqVIZPnz5VHOPx48dqb72fg6lTp5KdnR3Z2Niwz+3Zs6fiPOzs7PhqAgERER08eFBxraxatUqh37Bhg0J//PhxCg0NZftVqlRR2Pv5+ZGZmRnTW1paUv/+/en+/fsKu8LChQsXMmzVTp06Va2HS1Cw+DxPYUGmxMTE0JQpU6hmzZrUv39/hW7fvn1qN5ZUdHR0yMHBgS5fvkyXLl1S04eEhCiOlds0a9aMfVaZMmXUPh8ADR06VEzrEWjk4cOHimvl8OHDvIliGKJ3795M3qlTJybnOXLkiMZpMYMGDSJvb2/evMATEhJCGzZsYFPl5KVu3boUGBjIVxEUENSvTkG+ERAQQADIxcWFVxGpEkBAlfBh3759NHv2bGrTpo3iQePr68v2NY1R+fr6kra2NgGgxYsX8+pskZiYSJcvXyYA1LBhQ9q+fbvajS+VU6dO8dUFXzmRkZHUtm1bdo3Y2NhonAv69u1bxbUkR7oXeDnP9evXaeLEiWrXZadOnRR24eHhNGHCBCpRogQ5OTnR1atXFfqChHyZSanY2dmRr68vbyrIZzK/OgWflZSUFIIqMlcTUnfazZs3FfKJEyeSnp4e25duuitXrijsSJW8QktLi9m4u7vzJlmybNkyFvk4ffp0OnnyJOnq6ipudvnNP3z4cP4Qgq+YyZMnK66PjDIzHT58WGEnx93dXaNcEyEhIQSAZs6cSQ0aNCAAZGRkpLAZOnSo4rMA0ODBgzWuJ1sQCA8PZxHVUuncuTMlJCTwpoJ8JOurU/BZ8fLyIgC0bds2XkWrV68mAPTw4UNepSCjB48UpQyATp8+TXp6ejRkyJAsx3Hmzp1Ljo6ObL9Pnz4EgKpXr05OTk7smAMGDCB/f39mJ59yIRAkJiaSsbExuyY6dOjAmygYOXIks12wYIFCd+7cuWxfW2fPniUAtGPHDl5FxEUw9+nThzZt2kS//vor6enp0cCBA3lzIiLq0qULAaAhQ4YQVEMkS5cu5c0+C/J7ULoPBQWDrK9OwWenV69eGuf5/fnnnwRALcCJJ6MHz4EDBwgA1a9fn4iIxo0bR6NHj6b09HTelCE5ZQsLCyaTxr/kgU3Vq1dX1JN4/fq16LoSEBHRu3fv2PViZ2ensVtYjhTUB4Du3bun0I0aNSrD65xH6lLNyMG+efOGHevs2bNM/uHDB/r9998VthJ16tRhdeRl06ZNvGmew+cMh6rXqKC2vr8msr46BZ8dDw8PAqC2ePSIESMIAL1+/Vohl+Pt7U0AqESJEryKOnfurPYQyQhHR0dq06YN65Zu3bo109WrV4/dyKampnTu3DlFXYEgI2bOnMmunY0bN/JqBZLdDz/8oJDv2LGD6SZMmKDQaUIKlNqzZw+vYkgLCjRv3pxXqSHdYxmVQ4cO8VVyxPHjx+nAgQO8OEsePXpEJiYmaucDgAwNDenJkyd8FUEeI+bBFkAsLS0BACdPnlTIpaW6dHV1FXI50uLQDg4OvApv374FVEt9ZUZQUBAePnyIc+fOsTUvpbRuRISXL18y2+joaLRp0wZt27ZlMoEgI4YMGcK2nz59qtBlxLfffqvYl+ZeA0CnTp0UOk1In5PZmqzly5cHAFy+fBnnz5/n1QoePnzIixQ4Ojryomzz+vVr9OjRA7169YKvry+vzpRatWqhX79+vBgAkJCQgB9++AHh4eG8SpCX8B5XUDDYtGkTAaBLly4xmYWFhZqM5/bt2wSA5s+fr5AnJSUp3midnJzUps88ffqUKlSowGwWLFhAP/zwAwFgUZXyYJDo6GhKSkqiW7du0Z9//vlRAVOCr4vU1FR2/WiKcpdITk5mdp07d6a5c+cqxm8BkJeXF19NjaCgIGbP9wjxyKedZdRL5OnpqTiH9u3bk62tLY0YMYKOHDnCm7P4hgsXLrA6GY09SzEWUvn77795k0yReqgAkImJicZpPZMnT+arCfIQ4WALKNKUnSFDhjCZNIH+xYsXCls50vSZ7du3K+Tx8fEE1bhpsWLFCKrlsiSSkpKYA5fK48eP2TjYy5cv6eTJkwq9/IGV2TiuQCARFRXFrp+xY8fyagXya40v33zzDW/OeP78ObseX716RcgkMl+OdO8AoIMHD/JqIq57mr8HNAHVfPUJEyYo6mmiZs2aCpsZM2bwJkSquAhNVKtWjQBQvXr1KDg4mNzc3BTHA0D//fcfX02Qh4gu4gJK6dKlAQBbtmxhsunTpwOqlW0y4vXr1wAAGxsbhTw+Ph5Q1Y2IiAARYejQoWw1nHPnziEsLEzR/Xz69GmWsu7+/fvo0KED0xUpUgR6enpsX1paTyDIDB0dHbad1Yo4RARXV1dejKioKMUwhZwZM2bgl19+wciRIzFs2DD8/vvvAIBvvvmGN2WcOnUKZcuWRfPmzZnMyMhIYQPV+ezevZvtb9iwQXEPyLly5Qq7J4KDg9GlSxecPXuWN2N8+PABjx8/Vsg8PT0V+66urtDS0oKFhQW0tLTYPQ0AEydOZN/JunXrULJkSbRu3Rrp6enYu3cvs+vXrx8MDQ3h5ubGZII8hPe4goKDo6MjAaD4+HhepZGWLVuyN1VnZ2dFFKHUIu7atavG1ua8efMIqoUGAFCpUqXYsTp27MimAnz77bcEgIoWLcofQiDIFkWLFiUA9N133/EqjVy9epV27txJBw8ezDI7mbOzs1qrTbqeV65cqbby06lTp9RsASimm0mkpaVR5cqVmc2jR494E4Z0Hj179iRSzXG/d+8eq8sjDQlB1b0LgFq0aKGwqV69OrNp1KgRk0dERCjOXVNmp507d7IEM1C1qm/dusWbCXIZ9V9aUGD48OEDIZuRjURES5YsofHjxxMAatKkCQEgV1dXIlWOVqhWKTl27BilpqYq6v7xxx9Uu3ZtAkDLli2jK1euKG5aADRw4EB6+fIlAaCKFSsq6gsE2WX27NnsmpozZw6v/iSePHlC/fv3J2NjY9LX1yd9fX2163jo0KHM0cozQnXo0IEuX77MH5Lx7NkzZtusWTNerUCyk0+pW7RoEZPLmTVrluL86tatS1C9FEjIx4enTJmiqL9w4UKmc3FxIQBkYGBAixYtUtgREa1atUrxWZpmGwhyD+FgCzijR48mAHT9+nVelSFSvtXjx48zmY+Pj+LG+vHHHxVOVp5+LTg4mOLj4xVz6ywsLCg8PJxu3brFZP369aM5c+bQ7NmzxVxXQbZ58uSJ4lrMi2tHuraTkpLI2dmZBg0aRM2aNaN69epR9erV6cyZM8z29evXGY5rypESVkCV5Skz+P8tPDxc8T/Lkcc+DB8+XHHfRUVF0datWxV13759q6jfsWNHpnN1dVUsduDk5KRojaelpdGYMWMUx/vrr78UxxPkHsLBFgI03ZQfg7u7O71//56OHj1Ks2bNov3797Pu4sGDBxNUCdFJld2mfv367LOlN3Epg067du0IqnmwInpYkFPkATi2traUkpLCmxQ40tLSqHHjxtSsWTMKDg7m1Qqk/00a3pGviLNhwwZmt3//fiaXArfmzJnDZBs3bmTbrVq1YvXkGBoaEgCqVKkSkyUnJ9Phw4epcePGNGnSJIU9qf6X9u3bs2MDoPPnz/Nmgk/k05/agjxHugHykg4dOhBkU4Dkq/Ns2bKF2cXHx9P+/fspPj6efH19KSoqSnYUgSD7tG7dml1jWUUUFxT4oZWMkP4v6X6SO7Lw8HBmt3btWib/888/iYjo6NGjCnup7Ny5k9WTePDgAdNrmv6TkpKSYUYnb29vFnMhlfzIRPUlk7dPbUGucOTIEcJnzDF65swZdsP9888/vFogyBWSkpKoVatW7Frj14ItzPDOUSpJSUkKOyn3OACKiIhgcvlYqaGhId29e1dRT0LK7saXOXPmUExMDG/OSE9Pp7Nnz7KeKHkRCwbkHsLBFhKk1Wvu3LnDq3KVqKgoNkHd2tqaIiMjeROBINd49+4dlShRgj3c169fz5sUSoYNG6bmuOQLZsjx9vbWGGMxffp0cnFx0aiTsLW1ZceXorOl8ssvv/DmlJ6eTufOnWOrCmkq8ha24NPQov+9bQkKOCkpKdDX1wfwv/l4eUW3bt1w9OhRODs749q1a7xaIMh1AgMDUaZMGba/Y8cODBgwQGFTWNm/fz/09PTQrVs3XpUrdOnSBcePHwdU823/+OMPrFmzhunv3r0LBwcHbNu2DXPnzkVoaKis9v9o164dHBwc0KhRI9ja2qJWrVq8ieAjEQ62EGFhYYHw8HBcvHgRLVq04NWfRGpqKqZNm4bly5fD1NQUZ8+ehZOTE28mEOQJPj4+LN81VAkRdu7cqbARqJOcnIxr167B3t6evaR4e3vD398fHz58wNWrV3H8+HH4+fmxOubm5mjZsiWaNGmCli1bokaNGrIjCnIT4WALEZcuXULLli2hra2NgwcP5upb8fXr19G0aVMQEc6cOSOS9ws+O6dPn0b79u3ZfkREBMzMzBQ2gqx58eIFpk2bhpMnTyI9PV2hmzx5MsaOHQsrKyuRfe0zIBxsIePatWto2rQpACA9PT1XbpLo6Gi0bt0a9+7dQ//+/fHvv//yJgLBZ+Hhw4eoU6cOAKBevXpYs2YN6tevz5sJOPz9/XHq1ClcvHgRJ06cQFxcHABAW1sbDRs2RNeuXdGrVy+2apDg8yAcbCFEcqoLFizAjBkzeHWOGTlyJNavXw8A8PLyQqVKlXgTgeCzIR9X1NfXZ0swCtTx8vLCrFmzcOzYMSQnJytarHXq1MHixYvRpEkTFr8h+LyIZP+FkIcPH6JWrVqYOXMmfvrpJ16dI7Zu3YrNmzejePHiuH79unCugnzn33//xYgRIwDVGOORI0d4k6+WmJgY3LhxA/PmzYOzszPs7Oywb98+JCYmIj09HSYmJujduzdOnz6NK1euoFWrVsK55iOiBVtIef/+PVtA+mNbnX5+fqhevTqio6MxZswYrFq1ijcRCPKF1NRUtlKNgYEBNm3ahP79+/NmXwVEhEePHmHNmjU4fPgwkpKSkJiYyJth3bp16NOnD4yNjRWrYgnyD+FgCzGdOnWCq6srrKyssGDBAgwcOJA3yZD379+je/fuuHfvHpydnXH48GGULFmSNxMI8o2VK1di0qRJbFm7wMBAlCpVijf74ggJCYGfnx+uXr2KFy9e4MSJEwgMDOTNUKtWLdSoUQMDBw5Ew4YNNS6xJ8hfhIMtxCQlJWHLli345ZdfoK+vj9jYWMX6lNeuXUOTJk0UdSQ6dOiAU6dOwd7eHtevX4e5uTlvIhDkK2lpaTh27Bh69OgBAHBwcMCpU6fU1jr+EiAiHDp0CKdOnWLjqXFxcRrnvE+YMAEdOnRA/fr1YWRkpFhjV1CwEA72C6BevXq4f/8+mjVrhiVLlqB+/frw9PREu3btcPbsWdjZ2THbgIAADB8+HCdOnICVlRV27NiBVq1aKY4nEBQkGjZsiNu3bwMAqlSpgkePHhX61lpoaCgCAwPh6uqKt2/f4t9//9UYzFW2bFnUrl0bVapUQc+ePVG9enWYmpryZoKCyv8ndRIUVqKiomjIkCEE1eo2pFod5++//6a0tDRm5+fnR82bNycAZGVlRU+ePNG4+LpAUJCIjo5m1zcA6tixI/n5+fFmhYIrV67QggULqFSpUopl5eTFxsaGxo4dS1evXqXg4GCRG7gQI1qwXxBWVlb48OEDunfvjsOHD+Pdu3coX7483r17h127dmHWrFkAABsbG6xevRqdO3fmDyEQFEjS0tJgb28PT09PQHUN37lzB6VLl+ZNCxSxsbHw9fXF1q1bcevWLdy8eZM3gbW1NRwdHdGuXTvUrVsXtWrVUgz1CAoxvMcVFF78/f2pZs2a7E3Y3d2d5s2bp3g77tSpk2i1Cgot48aNU1zPy5Yt400KDPI1b/lSpEgRGjlyJAUEBPDVBF8QogX7hfHhwwdYWVnxYjg5OWHMmDHo0qULjI2NebVAUGhwdHTEo0eP2P6yZcvQvXt3VKxYUWGXH/j6+uLJkyf4+eefERAQwORaWlpwcHBA+/bt0bBhQ3Tq1EkEJ30FCAf7hZGQkAAjIyMYGRkhPj4ejo6OOHLkyBcZeSn4erly5QqaN2+ukH3sfPDc4ujRoxrzg7du3RpHjhxB0aJFeZXgC0dkcirgREdHY/bs2ZgxYwa8vb15tRpbt24FAMybNw+JiYl48OCBcK6CL45mzZph69ataNCgAZNVrlwZp06dQkpKisI2L0lMTMTt27fh4OCgcK4ODg7o0KED3rx5Azc3N+Fcv1JEC7aA06JFC1y+fJntP3jwAI6OjgobiXfv3rFusq9lUr5AMHjwYGzfvp3tOzk54dy5czAxMVHY5TYeHh746aef1AKXZs+ejT/++EMhE3ydiBZsASI9PR0HDhzAoUOHAAA///wzLl++DCMjI1hbWwOqSeYZsWXLFgBA3759hXMVfDVs27YNly5dYtf87du3MXz48Gz1+OQUIoKvry/mz5+Pb775hjlXGxsbNGvWDO/fvxfOVcAQLdgChK+vL1tOKjg4GJaWlgCAs2fPwtzcnC3bldFPJq2y4+HhgSpVqvBqgeCLhohQqVIlhWM9evQounTporD7WIgIY8aMwdq1axXyDh06wNXVVSETCCBasAWL9+/fs+1du3ax7TZt2qBevXpsXxNypyucq+BrREtLCwcPHkS9evVYsvuuXbti5syZCA0N5c2zTUxMDI4ePYp69eox5ypFBa9atUo4V0GGiBZsAeLff/9VS9hvaWmJoKAgQNZC1fSTnTt3Dm3bts1QLxB8TaxYsQITJ05UyEaMGIH58+fDwsJCIc8IIsK5c+fQrl07XoXTp09rlAsEckQLtgARHR0NAChevDiTzZs3D1CNz2ZEcnIyVq9eDQBqDlpQOElISIC/vz98fX0RFhaW6e8vUGfChAk4f/68IoJ+/fr1cHJywp9//glfX1+FPU9oaCgWL16M3r17M1nJkiUxZMgQ+Pn5CecqyB7KvBOC/GT27Nn0/fff08qVKwkAtWnThumCgoJYFhie//77j+l8fHx4taAQERAQQH/88QcZGBiw3xQA1a1bl2JjY3lzQTY4dOgQWVpaKr5PADR79myW1WzevHnM/sqVK2RhYcHstLW1aerUqbIjCgTZQ/1pLcg3xo8fT66urhQYGEj16tWjGzduMJ2Hh0eGDtbJyYkA0JAhQ3iVoBAQFRVFd+7coTlz5lDZsmUJAOnq6lL58uXJ1taWTE1NCQBVrVqVzp8/z1cXZANvb2/6888/qVKlSgonu2jRIvrnn38IAK1atYqWLVvGdFpaWlS+fHnas2ePYtGM7OLh4UFr1qyhN2/e8CrBV4L601qQb8yaNYsXMZ4/f56hg5Xk79+/51WCAs7EiRMVD3wANGbMGPL29lbYDR48mOkHDRpEiYmJCr0g+zx+/JhKlCih9r3zZcWKFR+dt3v8+PGKY/GsX7+etmzZwosFXxjqv7wg39i4cSMvYkRGRmq8WVNTUzXKBQWXpKQkunjxIrVs2ZIAkI6ODtna2tKIESPoyZMnvDmRasm28ePHsyXO5s6d+9EPfwHR4cOHycrKSs2pamlpkY2NDW3YsIGvkm3S0tLUjitx48YNGjhwIJPv3r1bUVfwZSGeyoUI/mYlInr06JFGuaBgcuHCBcWD18XFhcLCwnizDHn27BmrO2zYMF4tyCFNmzZV/B7yYZmPZc2aNQTVurXye1P+2/fo0YNti27/LxfxVC5EVKlShapUqaKQ7d+/n6AKxBAUXIKDg2nFihVUtGhRAkBly5alhQsXUlRUFG+aJbt376ZixYoRVN2Ygo/n3r17zNGtXr2aV+cY6QXI0NCQrl+/zo69fv16tm1ra0tERN27dycANHjwYP4wgi8E4WALORMmTCAA5OTkxKsEBQTpJQgAlStXjlxdXXmTHPPw4UN2zJEjR/JqQTbZtm0b+x49PDx4dY6xtbUlALRv3z4iIvr+++/Z8QHQrVu3mO3evXuZXPBlIubBFnI8PT0BALa2trxKkM8kJCRg2bJl6N27N4oUKYKKFSvi0qVL6NChA2+aY2rXro1//vkHRYsWxT///IPly5cjLS2NNxNkwbNnzwAAenp6ubKe7Nu3bwGAzZ8dP348ypUrh5IlS6Jt27ZwcnJitqampmxb8GUiHGwh59KlSwCQ7ew0gs+HkZERJk+eDAB4+PAh3r59m6vrlY4YMYIlm580aRKqVq3Kmwiy4OXLlwCARo0aQU9Pj1d/FPKXXScnJ/j6+iI4OBhnzpxR2EmfLfhyEQ62EHPgwAHEx8cDAL777jteLcgntLS0WFpLd3d3EBGqVavGm+UKNWrUABFh7NixePPmDbS0tDB16lTeTJABUovz22+/5VUfBRHhzZs3vFgjUpa2WrVq8SrBF8IX42BDQ0Px7Nkz3L17F9evX4e7uzt8fHwQGxv7xXad3b9/n23XqFFDoRPkD1LKSqh6F2rWrKnQ5xW//fYbHBwcAABLlizBq1eveBOBBqQ83yVKlOBVecqzZ88QGRkJAJgxYwavFnwhFMpk/2fPnsXKlSvVulw+ha5du6JixYqoX78+SpcujRo1ahT4bleplTR48GBs3bqVVws+I2/evEHlypUBACtXrsS4ceN4k8/CwoULFQ/sQnh7fzbu3r2LBg0aAAAOHTqE7t278yZ5SnR0tBiH/cIpVA7W09MTz549Q48ePXhVnmBsbIzu3bujQoUKqFevHipVqgQrKyuYmpoy55afSOewfv16DB8+nFcLPhNXrlxB165dWYskv2+pffv24YcffgBUiz8sXryYLUYu+H/279+P77//HlD9hk2bNuVNBIJPotA42ODgYMVDwsrKCiNHjkSdOnVQu3btDB8gaWlpSEhIQFhYGOLj4xESEoKgoCDcu3cPPj4+OHr0KJKTk/lquYaZmRnKlCnDIglLly4Nc3NzlCxZEqampihevDhMTExgbm4OY2NjFC9eHIaGhtDWzrr3PrPl6wSfhyVLlrAxz6CgIFhaWvIm+YK/vz/GjRuHQ4cOAQB+//13TJo0CUZGRrzpV0v//v3x33//AQB8fHwUK+8IBLlBoXGwPj4+qFChApAHazGGhYXhxYsXCAoKwp07d/D27VscPnyYN/ts6OrqomLFirC1tYWZmRnKlSsHU1NTlCpVCkWLFoW9vT309PRQvXp1QDjYfGP+/PmYPXs2AOCPP/5g2wUJeU9L9erV8fTpU4X+a8be3p5F8oaHh8Pc3Jw3EQg+iULjYF+/fo0qVaoAAG7evImGDRvyJp+F9PR0hIWFITQ0FKGhoQgODkZgYCACAgLw/v17+Pv7IzAwEL6+vmx91/ygWrVqaNWqFaysrFCzZk2UL18e5cqVg4mJCW8q+AimTJmCpUuXAoXgBUd+7wCAjY0NfHx8FDZfG+Hh4SzGonz58nj37h1vIhB8MoXGwcqDSK5duwZnZ2fepMCRlJSEyMhIxMbGIjIyEjExMQgPD0d0dDRCQ0MRERGBoKAghIaGws/PD4GBgfjw4QN/mFylcuXKqFevHuzt7VG5cmVUrFgRNjY2sLS0hI6ODm+ebeLj4xEcHIzo6GgYGBjAxMQEBgYGMDU1zbX5hQWF8ePH4++//wYAHDx48LPFBHwKa9aswZgxY9h+gwYNMGfOHLRv315hV5hIS0vD27dvcfr0aTx9+hRGRkaws7NDqVKlUK5cOZQqVQrly5fXONzy4cMHWFlZAQDq16+PO3fu8CYCwaejyOtUgPH09GRpxXbu3Mmrv0qWLVtGDx48oB07dtCSJUuoa9euVKNGDfY9FbSydu1a/l8oVCQlJdGgQYPY/1MYWblypdrv8scff/BmBZr69eur/Q85LdK6uwCoefPm9OTJk4/KCy0QZEahacG+e/eOpTJbu3YtRo0axZsIVISFhbFx5eDgYNy9exf379/H48ePedPPSpEiRZCQkMCLCw0//vgj9u7dCwA4f/48WrVqxZsUCry8vGBnZ6eQ5eewS044ceIEOnfuDKgyZRUtWhRlypRB0aJFcePGDd48xzg4OKBevXqoWbMmqlSpAltbW1SoUAFFihThTQWCLCk0DjYwMBBlypQBAEyePBlLlizhTQSfgDRuHBwcjHfv3iEqKgphYWEIDw9HUFAQUlNTUbFiRZQuXRpWVlawsLCApaUlihcvjpIlS8LMzAwGBgb8YREfH4+//vqLBQAVkstNQUhICAYMGIAzZ85AX18fSUlJvEmhhZ9uVpB/n3Xr1uGXX36Bp6en2gtCRqSnp8PPzw/u7u7w8vLC/fv38eDBA7x+/Zo3zTG2trZwdnZG3bp1Ua9ePZQuXZoFYn4KYWFh8PHxgY+PD1JSUpCamorU1FRYWVkxh8//boICCt+kLaiEhISwLp0hQ4bwakEBZuzYsey3K4w0b96cAJC5uTk9ePCAVxdqTpw4oeg63bJlC29SYJCGP9zd3XlVjlm8eDH7n3/66Sfq3LkzWVpaKr6Ljyl2dnbUtWtXWrNmDR09epR8fX0pISGB/3hGREQEvXjxgnbs2EE///wz1a1bl7S0tNSOKy/ffPMNjR49mo4fP07h4eH8IQUFiELTgo2JiWFZTxo3bozr16/zJoICSosWLXD58mUABbuFxPP27Vv07t0bDx48gJ2dHTw8PL7IlgMRwcjICImJiYCqZZbdfLqfE+m7v3z5Mpo1a8arc4Q0B7ZIkSKIj49Xm1NO/1vKE0SEtLQ0vHv3Dl5eXvDw8MCjR49w7dq1HEViS8fX9Dmfio6ODrS0tFC5cmX069cP3bt3z7Pc14KcUWgcbHx8PIyNjQEAdnZ2bJk2QcFG/rshlx4on4uqVavC09MTtWrVwsGDB3N1JZyCxpkzZ+Di4sL2C+LvJDmns2fPok2bNrw6R7i6uqJTp04YM2YMVq1axauzRXBwMN68eYNXr17h0qVL8PDwwN27d3mzHNOgQQM4OjqievXq0NbWRlpaGtLS0vD06VOcO3cOvr6+fBU1WrRogfHjx7PxakH+UGgcbFpaGnR1dQHVjZacnMz2BQUXeaajqVOnYtGiRbxJgcPPzw/dunXDgwcP0Lx5c1y8ePGLbLnypKSkQF9fH1AFEIWFhRWo4B7pNzhw4AB69uzJq3MMEeX67ypv9RIRUlNTQUSIi4tDQkICQkNDYWBggBIlSsDIyAi6urrQ1taGjo4Oa4lmdU7p6elIT09Hamoq/P394erqioMHD2rs1dPR0YG+vj769++PqVOninWjPzOFxsECgIGBAUtrGBUVJRJlFwIaNGjA3urPnDmDtm3b8iYFjiZNmuD69eto2bIl9u3b99lXWslP5A93d3f3z7YaUHaQzm3nzp3o168fr/7qefToEc6cOYPVq1cjICCAV6NixYrYvHkzWrZsyasEeYT6DOwCjHzNxvDwcIWuMJCamgpfX1+2RNbXgORc27dv/8ndenkNEWHEiBG4fv06ypUrBzc3t6/KuQJAYmIiewD36dMH6enpvEm+ExUVxYsEAGrXro3p06fD398fSUlJ8PPzw4oVK1hCDW9vb7Rq1QpFixbFrFmzEBERwR9CkMsUKgcrT+gvLTQuJy4uDq6urvjtt98wZswYTJo0CUOGDMGqVatw8OBBnD17NtvBG76+vhg7diy2b9/Oqz6aCRMmoHz58ihdujTKli2L3377DW/fvi2Q4125Te/evbPs+spvHj9+jA0bNqBo0aLYsWOHxgxAXzoGBgasG//FixdYt24db5LvfEnTpPICLS0t6Ovrw9raGuPHj8e9e/cwfvx4po+Li8OCBQvQpUsXEcuS13BRxQUa+XSPa9euKXRLly7NMrxdKvr6+oq6mtDW1mb2xsbGlJ6ezptkSlJSEqWkpChkdevWVTsXAKSlpUVFixYlMzMzsrCwoN69eyvq8Rw7dow2bNhA//33X4GeNnL37l32P6ampvLqAsXKlSupSJEiit/l/v37vNlXg5WVFfse7t69y6vzBel85s6dy6sE2SA2Npb27dtHNjY2iuu8ZMmSNG/ePAoICOCrCD6RQuVgf//9d3ZRnDlzRqFr27YtAaBatWrR+PHjacKECTRhwgQyNTWl3r17U/ny5cnIyIh0dHSoUqVKiro8q1atUlyAyMJBBAYG0j///ENRUVF0+PBhatiwIQGg4cOHK+yeP39OLVu2VDs2X4yMjFidt2/fsu2EhARav369mv2aNWuYTUHiv//+Y+dYkPHw8FD7TgFQ586dedOvhqNHj7LvYdSoUbw6X5DOZ8qUKbxKkANevHhBDRo0ULveAVCDBg3Izc2NAgMD+WqCj6BgP/k4tmzZwi4EPh/xnj17yN/fXyEj1U3p6enJizNE/mCZMGECaxUfOnSIN2Xs3r2bdHV1ydDQUHGxfvfdd7wpERGlpqYqLvAdO3bQjh076KeffiJra2vq2rUrERE9ffqUAJC9vT2tWbOGdHV11W4IqTx//pz/mFzBw8ODbGxsqEGDBuTn58erM6Vv377s/Aoqx44dIxMTEwJALVq0IADk5eXFrrVx48bxVfIFb29viomJ4cV5SqtWrdjvZ2dn99k/n0c6F/7FNSMuXLhA3377LZUqVYqsrKzIxsaG3r17x5t9tYSHh2t8YZeKlpYWGRgYkIWFBVlbW/PVBdmg4D75NHD8+HH2469cuVKh47tjJRkAOnr0KK/KEHt7ewJA1tbW5OfnR+XKlSMA1KxZswy7ic+ePcu6F+Vdy69eveJNiVTdx/ILee/evbwJERF5eXmpXfQAaNCgQXT58mV68uQJnT9/nm7cuMFXzRXevHlD3377LfvcSpUq0YcPH3gzjSQnJysy4xREzp8/T1BlaNq2bRuZmZmxB4n8N8qMx48f06BBg2j+/Pm8Kte4ePEiO5dFixZpvNZzg9TUVPL09GTZgby9vRUvgosWLeKrfFak8+jZsyevUhASEkLOzs6Ke6Zy5crUtGlT6tSpE+3evZvS0tL4al8tnp6edPr0afr+++/pu+++o5IlS5K+vr7i+wNAM2bM4KsKsiDzp0cB48aNG+zHnjlzJq9WQ0qvOGfOHF6VIdLxpZRxy5cvZ7KgoCDenEj1AJRar8WLFycA1KlTpwwdcnx8vOLC7dOnD29CRES+vr5qF/mhQ4c+y8MhPT2d6tWrp/b52R3/evXqFauTVZd8fvDgwQMyNzcnALRu3Tr6/vvvCQD9999/zEY6/4yIiYkhCwsL+vvvvz+5S23Dhg00cOBAio6O5lXk6OhIP/zwA50/f56WLVtGbm5uvAldvnyZTp8+zYuzzfPnz1m6QBsbGyaPjIykSpUqEVRDF/mZSlH6PZo2bcqrGD4+PlSlShXFtXfgwAEKDAykmJgYCg4OpsePH2d4b37NpKamUlxcHPn6+pKXlxfdvHmTjhw5wr5LQ0PDPHu5+1LJ+OlRAHn+/Dn7sbPTTSSNrTVr1oxXaUTu+CIiIohk3bTQEFgl8ccffxC41uu8efN4Mwbfgm3dujVvQqTBwf7xxx9069YtevXqFYWGhvLmGfLhwweKj4/nxZly584d9rkdO3YkCwsLAkCtWrXiTTVy4MABVr+gjOFJPHz4kHR0dKho0aK0fft29j2XKVNGYSc5YE1Oj4jo5MmTBIAuXrzIq4hUv3NWvHr1iho3bkwAyNnZWTHmTqpeGENDQ9q/f79CLufYsWOkp6dHADJ09K9evaJbt25lGEtQqlQpxbX24MEDSkpKIg8PDxo9erRCt2PHDnr8+DG9e/eOQkJCcnxtfSzS53/zzTe8itGsWTNm5+DgkC+BO3FxcbyoUCM1GjK7vgSaKVQO9s2bN+yH7t+/P69W4/bt2wSA9PT0eJVGzpw5w44vIR8vXb58ucJeok+fPooHEFSRefLWkJzU1FSFbUZv5N7e3gq7okWLUrFixah06dJka2tL27Zt46topHz58jRt2jRenClSxHa5cuUoOjqa+vXrRwCoRo0avKlGJk+ezM7733//5dXZJjQ0lM6cOUO7d++m9evX0+LFi2n16tV08OBBunbtGnl4eOTogRYWFsZa5lKX1+HDhwkAtWnTRmH7008/EQCNLUYioujoaCpbtiw1atSIEhMTFbr58+dTtWrV6MiRIwq5nOjoaHYuvXv3pujoaLXeCcn5nzp1SiGXCAkJoWLFilHJkiUJGbzMXL9+nUqXLk3FihWj9u3bU2xsrEK/bds2xXUGgH744Qdq164dlSlTRi22wMDAgEqWLEnW1tZka2tLVatWpQYNGtCIESNo5cqVdOHCBXr//n2utxKlzzczM+NVRKqXCOlFo0mTJhn2OGWXyMhIXpQp165dozZt2lDVqlXpu+++o9WrV38RLT7pe2/cuHGu/6ZfOoXKwb5//5792D169ODVapw+fZrZZ0VaWhq5uLgQVI5MIiEhgdasWUNQjX3yD0CSjdtC1dqTbnKpzq1bt/gqZGZmprhwNSF/8Lm4uLBgHHn5+eef+WoUHh5O586do4EDB7Ix5OLFi9Py5cuzNa3H19eXihUrRgBo4MCBRET022+/EVQvDtnB0dGRneO4cePo8OHDdPnyZfLz88t0YeuYmBjy9vamFStW0IABA9T+X01FV1eX7O3tqUePHjR58mRauXIlHTx4kG7cuEHe3t6sBRoUFET16tUjfX19mjZtGlvl5JdffiHIXgRevHhBq1evpsGDBxOyGI6QrjH5S9Ljx48V57dgwQJKTk5W1IuPjycnJycCQE5OThQSEqLQS5w6dYoA0PHjx3kVERHt3buXoHrhlOIAPDw8mH7Tpk3sPKRpYj/88APTu7m5Mb30m+dWKVmyJLVv354mTpzIVpe5fPky3b17l27dukVnzpyhXbt20d9//00zZ86kvn37Urt27ahdu3bUr18/mjVrFi1evJjWr1+vWCje0NCQnb8ceYT+pUuXeHWOWLx4MVlbW2fZC/HkyROqWLEiDR06VO3/l871/PnzfLVChfS//P3337xKkAVZe54CRHBwMPux27dvz6vVuHDhArPPiocPH7KI4TFjxtDcuXOpRYsWVKNGDTYG1ahRI7UbLi0tTRHdu2XLFvrnn38UN1mJEiXUApGsra2ZXpODjY+Pp5o1azKbAQMG0PPnz2n16tXUqVMn6tmzJ02cOJEOHjzIV6WePXuSgYGB4hykYmFhQf/88w9fRYH0ogGArly5QiR7UGtra7Pu88zg55RCNZ+4YsWKVK1aNRozZgxt2bKFrly5Qo8ePSI3Nzfavn072dvbq83Ta9GiBQ0ePJgmTJhAs2fPpkmTJlGfPn2ocePGVKZMGbXPkYqpqSnZ2NiQvb099e/fnz2A+/fvzxxeXFwcmZqaEgDm5EqXLq04TtWqVbn/7v9JT0+nWrVqEQBau3YtkSrAq0SJEgTVyxpk36PErVu3CACVL18+05bS7NmzCZlEsXfr1o0AUNmyZdmL3e+//8700v8GQOMLpzwQjW+pQhXBvnHjRjpy5AhVr15doevatSt16tQp099AXnR0dMjY2JjMzc2pWLFiGgNpslMy6pGS9HXq1FF7ockJhw8fJkNDQ/rll194lRp8FK6ZmRkNGzaMVqxYQXPmzKExY8Z8cks6v5H+t8ePH/MqQRZk7XkKEFFRUezHbt68Oa9W4/79+8w+K8aNG0dQPWSkrmWoWn729vYsGQT/MIyLi1PcYNLY640bN+i7775T6OTdhWXLlmXy0aNHy474/0jdfpnZaEKqU61aNbKzsyOoQu4rVKhAxsbGBIC2b9+usbvH3d2d1a9duzbr4jp37hyTa2qR88j/759++olatmxJ9evXp9KlSyvGqjWVkiVLUsuWLWnhwoXZGvOJjo4mLy8vun79Ou3bt4+WLFlCgwcPpjZt2lCjRo3YC5J0bC8vL1Z3z549BFl3cVxcHM2cOZNu3bpFPj4+7OXpyZMnsk9UEhQUxKJW79y5Q0RErq6uBNWLEQD67bffFHWkXpFevXop5Dw//vgjQeUceTw9PUlbW5usrKzo22+/pQoVKhBUzpY0zO89ePAgQTU2SUQUEBCg0PNl8uTJis8LCwujtWvXUuPGjcnZ2VkRUR4VFUUvX76kc+fO0fLly6l3797UrFkzql27NpUvX16j85aK9CJUo0YNqlu3LtWtW5dq1KhB5cqVoxIlSjCnLK/DI4+f+JTWa2JiInsp2rdvH6+mw4cPK7p9pRcgqXxp67PKe2MEOadQfWsJCQnsx27SpAmvVkM+ZpsVkuMZP348ERGtXbuW9u3bR8+fP6eAgADS0dEhAHTz5k1FvbCwMMUNJh8Di4mJUdyA0vzWmJgYRTfy2bNnZUf8f+St0OxG75LKuS1ZsoQ+fPjAugCLFy9O3t7e9PDhQ9qzZw8tWbJEY/DO9OnT2WdevXqVyeUvK5pazTzy7yQ9PZ2SkpIoMjKSPDw86M6dO7Rw4UIaMWIENW/enKpVq0atW7emoUOH0pEjR+jly5dqY5ofQ2pqKsXExLD5uA0aNKDnz58reiGkXgJprnRqaqriAerg4EDQ8LvL8fb2Zs5NergPHz6c7OzsaMmSJQQNDnbChAkEgEaOHKmQy3n+/DlbZFzTHOT27dsTVMF3QUFBdO3aNfadExFNnTpV8TtIwSrHjh2jQ4cOKYY2pCK9kAFQ63WRiImJURvH1UR8fDyFhoay687V1ZV27dpF69ato40bN9Lhw4fp1q1b9OTJE3rz5g0FBQVReHg4hYeHU1BQEL1584ZevHhBjx49omfPninOk385lHoE6tat+0njno8ePWKf8fDhQ4Xu2rVrZGZmRs+ePWOyKVOmMPthw4Yp7LPDo0ePeFGB4u+//2b/nyDnFKpvLT09nXXjOjs782o1QkNDs3VxyKN65TePHMkhbt26VSFPTExUdBFLY5ZyZs6cSQDo+++/p9TUVNq3bx+zB5BhRLDcZt26ddl6qJFq7FZCioKuVq2awkYTERERzFHY29sTqbrl16xZQ7NmzWLnsnr1ar6qGpKtubk5r/psJCQksBcGS0tLtZR/Hz58IABUoUIFhVxOx44dCQBduHCBVxGpXrD4qVmpqamsi1HKPsbPkx0+fDgBoLFjxyrkEqmpqSxyGwANHjxY0e359u1bgqw1SqprUbJPSkpSjPNLZdmyZYoANKhSh/bp04fGjx9PV65cYfLr16+zYxcEpPMqUqQIr6LVq1cTAJo9ezavyhHy4R35uHh0dDSTy++vESNGEFTd3w0bNsx2wJ23tzfr9ejSpQuvzpTHjx/T69eveXGuk56eTo0aNWL/tyDnFLpvzcjIiKAaD82K9PT0bF0c//77b5Z20jjThAkTeJVirFRT5h8vLy9q2bIlDRo0iNnJS0ZBP/Ixql69etGkSZMybO1mxIsXLwjZbPH//PPP7PNGjhxJx44dUztXqCKJM5ruISHZVqlShVd9NuStcQBqmb6kMcl27dop5HKk30xToMrOnTsVx5fzzTffUOPGjalq1aoEgNzd3RX6jRs3ElQvXf7+/hpbXdKQiIuLC1lbWyvGzqWxv/Xr1yvqSOfC96zUr1+fOnfurJBJ9eUvbtJLB1Qt3YKEdF6lS5fmVay1/qmBOFJgW/HixRVyaSgBAJ08eZLJpTFwebG1tVUEmmmCr5MTpGsqu042KSmJTpw4oRgayQ4PHjxg5+fo6MirBdmgUC0Xkp6ezlbRyc7KLNmxSU5OxurVqwEg08WIq1WrBnBL5klUrFiRbZcpU0ahA4B3797h4sWLipV5pGXQLC0toaenJ7P+f4yNjdn2iRMnsGzZMrRt2xbdunXD8uXLERwcrLDXRGxsLKBaQDszgoODsXHjRrbfp08f9O/fX2EjERAQgBcvXvBijeTXmr2JiYk4cuQI7O3tMWnSJADAhQsXFDbSsoFNmjRRyOVIC45LC5FLBAUFse+nevXq2L17t0Lfp08f3LhxAx4eHmjSpAkcHBwU+latWsHIyAhXrlzB7NmzNa4Q4+vriyJFimDXrl24desWfHx8mM7MzAwuLi7o3r27og5Uv7WxsTGKFy/OZHfv3sXx48fZfoMGDXDw4EEMHz5ccZ2VKFGC/a86OjpM/rHExcVh//792L59O3bu3ImUlBTeJMcYGhryIiQkJAC5cM7S+SUmJiItLQ34n/fD5cuXAdXxHR0dmX1kZCQAoG/fvuyefvv2LWrWrKlxAXTkYKnN5ORk+Pv7IzU1FVCtIPbmzRsEBgYCAG7evImwsLBMlxQMCAhAly5d0KlTJ9SrVw/79u3D//x71pw5c4Ztu7i4KHSCbMJ73IKMlJkJALVt25ZXaySrN0Q/Pz+CKhlFZl2wo0aNIgD0/v17XkUzZsxgn6NprEyeIAMATZ06lYhILbKUR7IvUqQIPXnyRHEMqaxYsYKvpmD79u2ELFppxE0JkpJ4rFy5kurXr08nTpxQ/A+aop55JFt+bunnRGo1SnNJNQXGZdR7ING5c2e14Qh5ApBOnTopdHKmTp2aaYKIhISETHNIp6Wl0apVq3hxhkgBKdIwxuLFi9Wul27duql1lfNI3YL8ghofQ1xcHL19+5b1xnTs2JE3yTbS/6BpLraURvVTjk9ENG/ePPY5Uis0KSmJBSXWrl1bYS+1JqVx/ePHj9PatWtp7ty59OeffypsSdX1L5/CJhWeGzdusOQfCQkJdPr0abVkIFLRNCxFquEdPrhMX19fbWw5I+T1+AQoguyh/ssWYOSJF3788UderZGMLmA59+7d40VquLq60ogRIzSG/1+5coWsrKwydTw+Pj507969HGW9mTNnDn3zzTesG3DhwoVUu3ZtqlKlCtna2pK1tTWVLVs20/zAixYtInBzHzUxcuRIgmoqjfyhL2XCkUdLW1hYqAWZ8Ei23bt351VqxMTE0K1btzS+vOQWjRs3JlNT0xxFeX748IFq1qyptrDE7du3qUqVKhkmf8hPzp49S2FhYWrDEeXLl8/26kDdu3cnbW3tHHcpaiI6OpqtdCXFT/CR+NlF+l80pRaVXpShGmfO7D6T5j9rYvfu3ew4rq6uRKqAR0kmHzNPSUlh49zZ5ddff2XHkk9HkyOP2B8xYgTNmTOH7WdU+HSwqamp7MVfT0+PZbjS1tamjRs3KmwzQjq2phdTQfbI/pVRAJCPCUycOJFXa0Sy/5LJbCqLNB9zyJAhvEqBNEd06NChvIpIQ3rHjAKzJCS7jN6uJcLDw8nW1lbtd/r777/Vxhc/BanVqa+vn2FSB03khpP5nPDjzshmWlE5/fv3pz179vDiHBMYGMiSo7Ru3ZpF4md37JBH+n+2b9/Oq4i4FhcAqlmzJo0fP55Gjx5NP/30E7Vr144qVKhAGzZs0PiiTNzMAx0dHZbGEirnJL/X5Ek6skNgYCCzd3Z2VgRUyZHPNw4LC6O6deuSnZ0dbd68mZYtW8Z08+fPp+3bt5OtrS2VL19ecQwpeh2q6VaxsbHMoWd0j/NI9XMa9yH4f7J3ZRQAEhISaN26dexHl0+mzwxHR0f666+/ePFXgbzFr6m7Ss6UKVNo0KBBGU6KT05OZsdCJoFZEpKdpkxTcviW1qVLlxT5ZDt06KCx2/1jkFrpfETvl0BiYqIiWA+qVmtW3cF5QWBgIN27d49Nj6pSpQoFBASwSPyPnZoi/V8ZTR9ydXXVmOBE+i66d+9Ob9684aupMWnSJLW52sbGxmqpT+XToLIiNDSU2rRpw+xfvnypWB1MIjIyks3DlV5O58yZw15oN2zYwOpIc66fP39Obdq0YYFy8tWXKlWqRD4+PpSQkMDWqc5Or9Lr16/ZMbKTWEagmayvjAJCenq64s1OypojyJjU1FTWhfWpSc+lpf+gethkhWSbVU+DZJdZyWp5suwizwS2dOlSXl1oSUpKoubNmyu+Mz5q+XMhn0cK1Xi99NImzevWFJGdFfIkM5nNkX79+jWtWbOGpk6dSpMmTaK9e/dmGluREfJVZKpXr642Vs4nmOnRowctW7ZMLVJdQppnD9kYsqenJ5NJdOjQgclu374tO8L/GDNmDNNr+qz4+Hg248HCwoINiaSkpFD37t0J2YwInjRpktq5CXJOofn20tLSFMkZPiWB/NdEeHg4eXt78+IcI1+goG7durxaDck2q0UGJDt50dPTo9DQUEV3XXZyKGcHV1dX9tLBz2kujISEhCgyhpUvXz7LVJh5SWxsLA0YMID69u1LJ06cUOik7z2jtI8ZkZqaSps3b2b/Y1bj/7lFXFxchr0nQUFBatetVCpXrkynTp1SJHKRdFZWVoqYD0l+5coVxXKcpqamFBYWxuwkpPFsABQTE6PQxcXFsUU5tLW1FeOyAQEB1LVrV4Is01dGJCQkkJWVFfscwcdTaL49+fJpUAUbyLsz/f396cCBA4o6gtxF+u6fPn3Kq9SQbLPqjpXs5Blx5M5Unhc4u5P4s0KaGwygUA8fvHr1SpHT2sXFhTcpUEgLT+QkMpo0LKUHgDp37kyHDh36rC11fu73s2fPaPfu3RQeHk6//fYbTZs2jTZv3kxHjx5V2JHsOueR5MbGxmyOPzRkkSIuk52mFbjkrd+2bduy8z179qza96cp9aaEPHtTTsfvBUq06H8/coHn0aNHivlnEk2bNkW/fv3g7u6OwMBArFq1CkZGRmwOrOolAtK/Kf2V5o7J9UQEbW1t6OjoQF9fHzo6OtDT04OOjg50dXVln/r1QUQoUaIEGjRogFOnTvFqNaTvf+nSpWweKk9AQADKli0Lc3NzhIeH49SpU6hZsyasrKyYzebNmzFs2DBANS+0XLlysiN8PJs3b8aECRMQGxuLrVu3YvDgwbxJgcbPzw916tRBSEgIAKBu3bq4cuVKlvOd8xM7Ozt4eXlh7ty5+O2333i1Rk6fPo327dvzYgUNGjRAnTp1MHDgQNjZ2cHQ0JDNX4bq2k1KSkJycjLi4+ORmJiImJgYREVFISwsDOHh4YiMjERsbCwiIyMRGRmJ8PBwhIWFITQ0FIGBgYiLi0NycjKMjIxgZmaGb7/9Fm3btkWdOnVgZ2cHc3NzGBgYKM5LzubNm1GjRg00aNBAIS9dujSbjy0xc+ZMzJ8/XyEDgJcvX8Le3h4AMHnyZCxZsoTpgoODUbVqVURGRsLU1BS3bt2Cvb09iAhHjx6Fl5cXjh8/zubm/vDDD9i4cSNMTEzYMSScnJxw584dAMDJkyez/P4FmcB73ILM6dOnFblSP2eR1lR1c3MTg/7ZQPre1qxZw6sY0jzNzPIse3l5sWNltLD5xyIfL+zXr99HjdXlBy9evFCkQZw1axZvUiApX748AaDp06fzqgxZuXKlYmgou6VOnTpssQdel1elTJky9M8//2Q5v51HCt60s7Oj3bt382qGtEAEAMXUsdjYWMV3lFEQWXaDsiSbDh068CpBDsn8my6AJCUl0eXLl+mPP/6gcuXKkaWlpSIX8OcoRkZG1KFDB1q2bBldvnyZ/P39KTIyMtPgi68N6bviIy8l4uPj6ZtvviFdXd1Mx1dTU1NZRGdmSRs+lvXr17OpJMOGDVNbjrCg8f79e+aooJr+UliQgm+mTJnCqzLlyJEjrHsZAAUFBdH9+/dp+vTp1KxZMypVqpTaajvZKTo6OlSkSBEqWrQoFStWjMzNzcnCwoJKlixJpUqVojJlylDZsmXJ2tqabGxsyMbGhqytrcnKyopKlixJRYsWVYs2loqNjQ316NGD/vvvP7p+/ToFBwdnGnl/48aNLF/wDh48SIaGhmRiYkKvXr1icl9fXzIzMyNzc3NatGiRoo5Eeno6jR07lqCaqpYRaWlp7H/IaDqUIPsUmi7izChWrBhiY2Px7t07+Pn54fHjx0hJSYG+vj7r4pX/1dbWZl3A+vr60NbWhoGBAbS1tZGQkIDw8HB4eHggODgY9+7dg5+fH3x9ffmP1Yi+vj769++PAQMGoH79+oquqq8JqYv4+fPnrFtLTseOHXHy5Els2rQJQ4cO5dUK6tatiwcPHuDhw4eoXbs2r/5k/Pz8YGNjw/YL6i3x/v17NG7cmF2LCxYswIwZM3izAklycjLrQp0xYwYWLFjAm2TKkiVLMHXqVCCT38fb2xvbt2/H/v378erVK4XO2dkZzZo1g7OzM6pVq4ZSpUrlyr0ZERGBM2fOYOjQoSyNa2bY2tpiwIABmD17NrS1P1+m2rS0NPTv3x979uyBsbExS6HK4+bmhjZt2gCZfM+CHMB73MJGbGwsQUNy7tzm1atXtGPHDurTpw9ZWlqSubk5GRkZsew0mkrZsmVp8eLFdOfOna+qhStPSpFRd7qRkRHp6ellOOFfzv379zNsCecWly5dYvMP3dzcNCbfz0/CwsKoXr167HstbNl15N3xW7Zs4dWZkpqayv73zFJTynn58iU9efKEfHx8skyKkhukpaXRs2fPaOHChdS9e3cqUaIEmZmZkYGBgcZnhKmpKY0YMYLCw8MzzSyVWyQlJbEI5Mym6cinAQk+nUL/LUpTOfJz1Zb79+/TihUr2PJTmRVbW1tasGBBhuH/XwJ3794tlDepPNd1fl5PPJGRkYq1WwvLmKsc+brIOU1+cejQIVZXvkZxYeLYsWNsiUJNZenSpXn6Au7r60vm5uakpaVFy5cv59VE3JrPRkZGvFrwERSuJ6AG7t27R8jirexz4uvrS3v37iVnZ2cyNTWlIkWKaHyDhSoR/pEjR8jHx4fi4+Oz1ZorDMgn6Rc25Hlgvby8Ptucy4yIi4tja9Iim+sgF0SWL19O2traZGhomGG2sIwYOnQoQTU/Wj63tDBy+fJlmjt3LpmYmLDEG1Jp3749ubq6UkJCQq5fd4mJieTi4kKlS5fOMP3nwoUL2bloWpZTkHMK3xOQ46+//iIU8PmMkZGRtHXrVkUKwIyKnZ0dzZgxQy1zTGGisGeB2bRpEzv/SZMm8erPRlxcHNWpU4edy6+//sqbFCo+1mlI///KlSt5VaFn0aJFLMhOXvT09OjSpUu8eZ4i//zg4GBeLfgICn2Q088//4xNmzbBzc0NrVu35tX5ivTVSgE/6enpePDgAU6fPo0lS5YgLS0NKSkpbN1Jnh9//BENGzbE999/D1NTUxaglZ11bnNCeno6VC9bSE9PV+ynpaUhNjaWzRGMiYlBZGQkEhMTUbJkSZQoUQLlypVTzD3u1asXTp48Cci+g8LGmjVrMGbMGEAVIPI5A1KgWjP0hx9+gJubG6Ca63n79m3e7KtAuq5u376tNo/0SyAhIQE9evTAhQsXkJycrNB99913WLp0Kb755hvo6+vn+r0vR37/7t+/n1cLPoJC7WDj4+NhbGwMIyMjxMbG5unFl1Pu37+PAQMG4OXLl3j//r0ieQKPj48PDhw4gCNHjuDmzZu8Wg1LS0vY2trCyckJZcqUQbVq1WBhYYFKlSqhePHiSE9PR0JCAiIiIpCQkICwsDA2sT4yMhIBAQF49eoVHj9+DE9PT/7wuUaRIkXYQtiFEV1dXaSlpcHJyQkXL17UuNB3XnD16lW0bNmSvXj9+uuvWLZsGW/2VSAlI0EhflnLCX5+fujVqxdL9CDHxsYGkyZNwk8//QRjY2Ne/UlERESgePHiAAAPDw9UqVKFNxF8DHyTtjBx+/ZtQjbWOv3cSJHNWlpamSZR4ElLS6N79+7RihUrqGTJkqSjo5PhPLv8KFpaWqSlpUXa2tqsZDS+rKOjQ8uWLeP/xULFsWPH2Pf/ubqKnz17pvgeC9M817zg8OHD7Lv4WkhPT6cTJ06QlZUVW+JPXqpXr06rV6+msLAwSktL46t/FCdPnvzqvufPQaH+NgcMGEAA6Pr167wqT3n79m2m40mPHz8mAPT333/zqo/C19eXTp48Sc7Ozh81oT6rUqVKFerVqxf99ttvtG3bNrp06RI9fvyY3r17R+Hh4VnexLGxseTn50fu7u709OlTjUnKCyvSyxLyIJOUnNjYWBo8eLDid3Fzc+PNvjqkjFVmZma86qvh2bNnNGHCBLX7VioWFhY0e/Zsev/+PV8121hYWLDjCXKPQvttRkdHE1TzybLL48ePKTIykhdr5NGjR6Svr081atRgF+7ly5dZSrLsrkf7sYSHh9POnTszjPiTI90YZ8+epaioKIqLi6P09HSNRZBz5FHReRHFu2XLFsUDs1+/fgVuHm5+0KdPH/adZJZCUGLTpk20Y8cOXkykahXOnj2btLS0qG/fvixiX1qPODs9FOnp6dS2bVvS0tLKtyxH6enp5ObmxhoXmoqWlhYNGjRI43J3mtixYwerO2LECF4t+AQKrYN9//49AaBy5crxKo14e3uTvr4+xcfH8yqNjB49ml100rJP0ly+Bg0aKCaHX7hwIVcdblxcHEsrh0zeKCMiIqhz587MrrAlHyhMrFq1Ksvf42PYv3+/4uHYvn173uSrRT6NxcPDg1crkPJaA6DNmzfzasVcWgB0//59IiJq1aoVAaChQ4fyVdQ4evQoq59d55WX3L59m8aMGZPpMFKHDh3o8uXLfFUF8uQS27Zt49WCTyB3nxafkevXrxMAqlWrFq/SiHQR6uvrk4uLCwUHB5OnpydvxuAv1PT0dLZgMZ/Afvr06QQNoe0bN25U7Pv6+hKp1pJcu3Zthl2p0lt1ly5dCJk8XKT/ae/evdS6dWsCQB8+fODNBLmEtO6qrq4uLV68mFfniLNnzyoStNetW5fev38vehlkSN+NlpYW6erqkr6+PlWpUoXWrFmjSFahycHIu0uTk5PJ1NRUoZ8yZQpFRUWxGIL169cz+8OHD7NtiZSUFNLW1iZjY+MMk+nnF+np6ZSSkkIeHh60cOFCKlGihNr3oa2tTfr6+jR16lT2HJKQx1Hwa8wKPo1C62APHjxIULUms0IeKMGXjJD00sUnT9d2/vx5he2IESMIAL18+VIhr1mzJkvKvXTpUoLqzVla47RXr14Ke+JSyhER7dq1izchIqL//vuP2clXnMkqYbjg43n79i1ZWlqy75pfHzS7XLlyRW2N08+5rmlh4ObNm4rvR1O5efOmYu1SeZG/lO7du5fJHRwcCAANGDBA0ao9e/YskSplJgC6c+eO7Gz+x7x582jdunW8uMAREBBAq1atIhsbG7XvBarx7CVLllBgYCCR7FnXs2dP/lCCTyRjD1PAWbRoEUGV7zcz/v33X7ULDCrHGR4ezpsTqcY/AVDLli1ZN1VQUBBztvwbYOXKlQmAIjlE06ZNCSpnLE8dqKurS4aGhuwc+Fy90k2hq6tLRYsWpalTpyr0JOsOa9u2LSUlJbGW0OvXr3lTIiIaO3YsLVmyhBcLPoLU1FRq0KAB+41y0i2/bds2KlKkiOI6vH79epZBZF8bfn5+7JreuXMnrVmzJtM0g5qK1JMzbdo0Jhs+fDgtWLCAoIrEla/CFRcXR0REw4YNIwA0e/Zs7qxyh+joaFq1ahUVLVo0zxNnpKenU3JyMr19+5Z+//13tQBJLS0t0tfXZ/tPnz7lDyH4RAqtg5XGrooWLUrLly+nMWPGkJOTEzk6OtKUKVPo3r17REQ0a9YstZtPKhmNozx//pygShfWqVMnAkBXrlxh9eTjr0FBQUwuOVh/f3+CLABr7dq1is91dHRk269evaK4uDiqUqUKubq6qp0jNLSype5gafk2yc7Hx0dhl5aWpsiqJO8GE3w8ISEh1LNnT/a9ZpVxJzk5mfVySKVKlSo5zsn7tSAf7w4ICGDyhIQEevnyJVt2LaMiX8e0fv36TH716lUW0FOsWDEml69PKw0DrV27lslI9WIlJ6Phnazgu28z48SJE7RixQrFd/ApeHt708SJEzV2qWd1LoKPo9B+q2/fvlW7QORFW1ubrly5Qu/evVPTSYVviUrs3LmTANCBAwfY/LCffvqJANDIkSMVtvIglcePHxPJAqR+/PFHIiJq06aN4nPPnz/PwuLPnj1LL168IADs5qtcuTKFhYVRUlKSxvVJpePMmzePiIiqV69OAMjAwIA2btxIaWlpVL58eTZmKC/SOQo+HXnrqEiRIjRw4EDatWsX3bt3j06ePElz5swhU1NTxQOtWbNm9OzZM7UHtuD/kb6v1atX8ypGamqq4rqWepeGDBnCIoTlvU7ScIx0r0nF3t5eEbFdqVIlAjcMlJ6eThMmTGDTprp160ba2tqkp6en1rU/adIkGjJkCNuPi4uj4OBgCg4OVjj7t2/fUv369RV1Jfz9/cnKyoqdu4GBQa6O+6akpFB0dDQ9fPiQtm/fTt7e3hqfM4JPp9A6WD8/P4JqDtiPP/5I06dPp507d9LBgwepdevWrGvXw8NDcUPJS0Zdc8uWLSOo3nil7mKp8It+b9u2jekePHhAERERbNmzK1euEBGxLmGpxMTEsO2rV6+yFrNUsgrckuykVTEuXLigqO/u7s62a9asqWgZ8+PEgk9j9+7diu8+s9KtWzcRhJYNpO/r2bNnvEoB//0CIG9vb6aXX/fSEElkZKTCnp+WIjm1hw8fMllycjLVrl2bVq1axVbvksrJkyeJiOjBgwesZwmy1mCFChWobt269OOPPzKdm5sbJScnZ/iCP27cOGbbqFEjguxlWlC4KLQO9saNGwSABg8ezKsYKSkp7I3V1tZWcWOMGjWKN2dIUbzSknJXr14lAPTtt9+qrd24evVqdsxFixaRkZERAaAjR44QyR7Af/zxB4WGhlJsbCwlJCSwOvfv36eXL18qzm3FihWKz+CR7ORrpMpvfLnDHjp0KP38889s39/fX3EswacTExNDt27dUnT9S2XQoEHk7u6e7elhXzvyZe2yQj5/s2jRomoRsKNGjWL6Fy9eMPmNGzeoYsWK5OzsrIj8P3HiBLOXXkQTExOpRo0aBFXimF9//VXx+16+fFnRpS2VY8eOEWl4CciqpXjs2DGWven58+d07do1gqoVKyLMCx9ZX8UFFKnlmFVUn+RsevfurXZjZIQ07iq/GapUqUIXLlxQ2BHX5SRFhsojm6WgCfk6lvK36Lt375K3t7fi3LIam5PsXF1dNcoTEhKobt26imMCICsrK9E1mcc8e/aMLl26RO7u7hQVFcWrBZkgxS4AoDJlyvBqjbx8+ZJu3rypMWBRPlabnd/izz//ZPYPHjwg4pzupUuXqH379op7asqUKWxb7nyl+nLbjJJgSERHR7Nhoo4dOxIR0Z07d1j9jBxsRnJB/lNoHWyPHj0ImcwRlUhLS6OmTZuSgYEBmx6DLN6OX716lekcWZ4lS5YoxoDkU2V8fX1pzZo1ipsgICCAnYe3tzeFhoay/Y4dO2Y53iLZhoSEKOQHDhxgN6LUwpeKnp6e6J4UFGikKTSGhoa5cq2+evWKHB0d6ejRo7xKI1KcBVRrNU+aNIkN7zg7O1NkZCRrXTZu3Fhxf0kZ4qT91NRUunjxItsfNGgQmZubU6lSpcjGxob/aCIiteUsAwIC2LjtggULFLa+vr5Up04dFpVubGysFh8iyH8y9zQFmOLFi5OOjk62WmTyCODy5cvneu7i+Ph4atOmDQ0YMIBXaUQaP9bV1SXi8t1u2bKFzMzMyMXFJUMnP3HiRKpQoQIvJlKll5OQ36zywAuBoCAiXatZDZHkFVIEMV90dHToxIkTlJ6eTs2bNycHBweWG7hYsWKsd0oeUEncusJPnz5VDCdpylNubW2t+Fx5ACXfkJBnepOX06dPK+wE+UuhdLD79u0jqMY1s4u/vz/5+vpmGNj0OZFasA4ODkSqLh4piUV0dDStX7+e3TBFihRRi1TMDHlLWUrC7+fnJ3LbCgo0p06dYtd8fl2rERERdO7cOTasA4AaNmxIr1+/ZvdVWloay5wUERFBiYmJrL7URVyvXj0iWeYvqKL3vby8KCYmhsViyLl3756as5TKzp07FbZRUVHk7u5OPj4+FBoaypLuIAdd64LPQ6F0sFIQEp9RqbAgRRHLx4H9/f0VWZvc3d3pzp07am+uAsGXSK1atZiTKAhIU614R5gZUjCUlGqRn/MKgDZt2qRxPHju3LlqtlLJKiYjKipKYZ+dXj3B56FgXM05IDY2lrS1tcnIyCjf3nRzg6yiCQWCrwV5BPz333/PqxmXLl2iKlWqULly5cjW1pZXExFRYGAgLVy4kGrVqqWYspPXSHEUT548IVL1JJUsWZKgiuTv27cv+x91dHTol19+YQsOEJEiw5ebmxv5+fmxufKmpqZqY9KvX7+mYcOGsX1p/BrZDOgSfB4KnYOVxi+zu4qOQCAo2MiD/ABQnTp16Pfff1eLDJbbIIPxxmrVqhGymL6XFzx58oTAtb4XLFhANjY2LIVpQEAALV26lKZNm0YrVqxQrPcr/7+k6UbyVW5OnTrFbO/fv09QJaQh2TRCqBYzERQcCp2DlfL61qxZk1cJBIJCir+/v2LRb6kYGxtT1apV2TS7li1bsuk0JiYmFBQUxI4hXyM1oyQOeUVCQoLG9InZ7a7dsWMHLV++XHGMhIQENo4rT3MqpV7V1dWlt2/fsil5RYoU+aytdkHWaKOQ4e/vDwAwNDTkVbnCmzdvkJyczIsFAkEe4uXlhQMHDmDDhg0KeVxcHDw8PLB//34AwODBg/Hzzz8DAGJiYvD8+XNm++DBA7a9adMmJCUlsX2eN2/e8KJPokiRIihevDgvho6ODi/SyIABAzBx4kTFMYoUKYJdu3ahdOnSCA4Oxv8auoC29v8e26mpqahatSru378PAPjxxx9RoUIFVl+Q/xQ6B/vkyRMAQK1atXhVpjx8+BDx8fG8GFDdqLa2ttDS0oKDgwNsbGxQu3ZtTJkyBXFxcby5cMACQS6zZMkSvHnzBsOGDUNMTAz8/f1x6tQpbNiwAf369WN2derUQXJyssLJSGzbtg0mJiYAgHnz5sHc3Bx//fUX0wNAWloa7O3tUblyZZQuXRoeHh4KfUGjZMmS8Pf3x6xZs6ClpQUAaNu2LZo1awYASElJAQC0bt0ac+fOVdQVFAD4Jm1BR0r7xy96nhnz5s0jABnOHeVXOuHLpk2baOvWrTRnzhxavnw5HThwgD+EQCD4BEqXLq0Yk5Qjn1+6fPlyRcQt3xV87tw5atu2LdMXK1aMJYEgIrp165bi3l60aJGifk7Yv38/tW3bNt/m7fbq1YsA0OLFi3mVoIBQ6Bxs//79CQD9888/vEoj/NJWfC5hIqLevXtTUFAQJScnEwCaM2cOnTlzhpYvX04VK1akYsWKsUxNUGVFcnR0VLu5eRISEmj37t3k7OxMgwcPpkOHDvEmAsFXT3R0NEGVlzsj5ItqSEWefpRHnn508+bNTC5Pug9ZoJAcPkOaJuTjveByHQsEEoXOwQ4ePJgAZHuxYlNTU4Js/UdNb8n79u1j2wBo/PjxCj0R0cmTJ2nmzJmKRYvr1auntmC6HGk5M/nCzmPHjlULuRcIvmbev39PADLMXCZRoUIFdh9VqlSJVys4d+4cs5V6nOLj48nGxobArcl89uxZVk/KnnTx4kXZ0ZTIW8FS/vHff/+dNxMICl+Qk66uLgDg8ePHuHPnDl68eIFnz57hxYsXCAkJ4c0RHR0NAOjevTsAKIIiJDp16qTY9/b2VuwDQPv27TF//nw0bdoUNWrUQNOmTXHv3j0cPXqUNwUAHD9+HGvXrkWdOnVw4MAB7N27F9999x1WrVqF8ePH8+YCwVdLZGQkAMDU1JRXKbh48SKOHj2KY8eO4eLFi7xawYIFCwAAJUqUQNu2bQEAO3fuhK+vLwCgcuXKzPbQoUNsW7qfMwuCWrlyJdt2cnICAJw+fVpmAURFReHevXsYNWoU1qxZo9AJviJ4j1vQ+fvvv9nbo6byzTffsK7bjRs3Mrm0nVlCbGntV3t7e17F6N27N3Xr1o1SUlJoypQpNHPmTN6EEhISyMTEhIoVK8aWvCMitvTUt99+q7CPj4+n8+fP05kzZ8jDw0MkoRB8VVy6dIkA5MqSfklJSYpnhHR/+vr6qj0rpKKvr8+S1jRs2JAA0J49e7gj/w/5Qh0AyMXFhQCQnZ0ds3n9+rXaZ4wePZqio6MVxxJ8+RS6FuyQIUMwffp0VKpUiVcBAF69eoUWLVpg27ZtmDx5MlxcXACAReBlFgEcGBgIAIiNjeVVDB0dHXasOXPmYMiQIbwJXr58iZiYGDRq1AjW1taIiorC7NmzMWDAAACAra0ts3348CG6dOmC1q1bw8XFBU2bNsXevXtlRxMIvmxevXoF5NLUux07dmDChAmA6l4dNWoUAGDr1q3MxsjICN9++y3bT05OhqenJwDgw4cPAABra2uml/Pu3TvFvmRXpUoVJgsNDcXo0aPx66+/omPHjgCANWvWqE1BEnwF8B63MBEbG0sBAQHk7+9P7969o/Pnz1PlypUJqvRiUK3BWLlyZbbskzzfL8/Dhw8JADVq1IhXMfr27Uvdu3fPNE3j5MmTCargisOHD1ODBg0IquCo/2vvzKNrut4+/j03EdyQydKQRNKIJSxSNSzVlAiiqtUIgsqiYZVWBws1rLaGSAXVYIUa2ioihpAoiUaISCOGRFDVioohMUaCSAgZDDfP+0fv3j1n5ybo761Esj9r3bX22c+zn7PPucNz99l7P0/Xrl35CPvGjRv8H66FhQWfY3r11VdFkxJJrYUFyf9fefToEbVs2ZIAkJ2dHR08eJDLWDINa2trSk9PJyKi7du38+/fzp07KTs7mx9nZmaqLP+DOsNN+/bteQCMOXPmEBFRYmIiwZhqjlSR5yCMciV1gxduBKvG0tISzZo1g4ODA1xcXNCnTx+kpKQgMDCQ/7Ns164d0tLScPToUQCAr6+vYOUf2J46BwcHUcRRj2ArIyUlBQBw6NAhDB48GOnp6fD09MSKFSuwf/9+tGjRAgCwbds2wDhPFBkZiYSEBACodL+uRFIbYaPH/5WoqChkZ2cDxpFs9+7dAeNe0YyMDADAxIkT0bVrV8C4d5QFglAUBefPn+e2KkOtExISgn379gEAevXqBRjneQEgOjoaMO6xZ7A9q5K6wwvtYE3h4OCA8PBw7NixAwBgZ2eHEydOAEaH3KhRI6HFP7DHx82aNRNFHJ1OV6WDLSoq4s48NTUVgwYNQlRUFA4fPoxx48ZpHoNdvnwZDg4OiIiIwODBg2FtbQ0AqFevHteRSGoz5eXlOHHiBOrXry+KnpkxY8agdevWSE5O5o9mYXSeTZo0gZubG8aNG8frGzduzKeaiouLNYsks7OzcfPmTZSVlfE6GB//AoCtrS38/PxQUFAAAPDy8gIA7N+/HwBw8OBBAEB8fDxvO2zYMF6W1A1qnYNlMGf1/fffY8SIEQCAhQsXClpa2AjW3t5eFAEACgoK+IrHymDh2szNzXHy5Els374dQ4cOFdUAAElJSYiLi+PzxOzLWtn8j0RS2zh//jxycnLQt29fUfTMREdH48CBA/D29tbUm5ubIzU1Fb/99luF7xZbD9G0aVO4urry+iFDhqB3797w8/NDUFAQzp07ByLikd0KCwu57oQJE3iZreNgf+oXLFjAZX5+frwsqSOIz4xrCyUlJWRjY8PnP9R7XSuD7Z2rLIiFr68vASBFUcjHx4eioqIoNzdXs+o3JCSEANCQIUM0bUVYBpEzZ87wuh07dhCM0WokkrrA2rVrCQB99913oui5kJycTMOHD6f8/Hwi4z77+vXr898N9urXrx8REYWGhlKzZs3I2dmZnJ2d6bPPPtPYY/vtYQw+wcoLFizQ6EnqBrXWwTLWrFlDhw8fFqtNsm/fPgJAu3btEkVERBQZGakJGsFeFhYWtGzZMiLVZvgnRW1iWYHWrl1LRESnTp0iAGRjY/NMSZ4lkheZnj17EgA6e/asKKpWMjMzaePGjRQcHEwBAQEUExMjqphk1qxZFX4fUHvHMZInIN95FQaDgebNm1flPtSZM2eSg4MDNWnShCwsLDRforCwMPLy8iJra2vKy8sTm2o4c+YMAaChQ4fSvXv3yM/PjxRFqXT/nURS22ChSc3MzKpclf8ikZeXR2+88Qb/TbC2tqbQ0FBRTVJHUIjlQJI8MwaDAceOHcMvv/yCq1evYtq0afDw8BDVKsXW1lYzp9umTRucOXNGoyOR1FaysrLQqlUrdOzYkc9Z1hZiYmLQqFEj+Pj4iCJJHUI62Gpk/fr1+Oijj/Do0SNYWVkhIiKiQthGiaS2kp6ejm7dusHHxweJiYmiWCJ54am1q4hfBAIDA1FWVgaDwYDCwkLpXCV1CjZqZfvCJZLahnSwEomkWrh79y5gnCqRSGoj0sFKJJJq4fbt2wAAFxcXUSSR1Aqkg5VIJNUCC9pgY2Mjiv41BoMBpaWlKC0t5YFjJJLqQjpYiURSLbDQhFWFJn0WsrKyYGdnB71eD71ej3r16mHdunWimkTy3JAOViKRVAssEL5erxdF/4opU6agqKgIOp2OJ+X48MMPRTWJ5LkhHaxEIqkWcnJyAGM2qf8PYmNjMWTIEBgMBjx+/BhlZWWaWMBMZ9asWTwYv0TyXyIdrEQiqRYsLCyAp0jj9sknn8DFxQURERGiiHPz5k0AgLu7O6+zsLDA559/zo/z8/MxduxYhISEwMvLC61atcLAgQN5msj/guDgYDg5OeHBgweiSFIHkA5WIpFUC40bNwYA3L9/XxRpWLVqFa5cuYLAwEAMHjxYFAMAwsLCAABXrlyBm5sbFEWBm5sbunTpAkVR8P7776Np06bIz8/H9OnTodfrkZWVhZ07d2LRokUaW+fOnYO/vz8URdGktwOAuLg4KIqCSZMmaepFB1pWVgZ3d3fMmTMHOTk5aNCgwTOPmrdu3QpFUaAoCs/SJXmxkA5WIpFUC8zBPk2icwbL8ywSExMDANi8eTNPup6dnc1zsEZFRQEAPD09kZCQgJKSEgCAm5ubZgQbHBwMd3d3/PzzzwCAl156icugmje+ceMGrwsPD9eMlGFMkykmkv/99981x08iODiYl7/99luNTPKCIAYnlkgkkudBWFgYD4o/evRo+uKLLyg4OJgWL15MiYmJRES0ceNGAkDJycmVZqZJTU3lsgsXLtCdO3e4LCMjQ5OQIyEhgaZOnUorVqygQ4cOUUZGBhER3bx5k5ycnLheZdmwwsPDCQB5enpSSkoKbdq0iQCQl5eXRo/Z+fHHH8nb25sAkLOzs0anKpYuXUoAqEOHDtxWbm6uqEZEROvWraM2bdqQj48PxcXFiWJJNVLx0yqRSCTPgWPHjmmcn/giInrttdcIABUXF2vq1TAnDIBu3bqlkR0/flxj8/bt2xo5Y/78+Vxn9erVopizevXqCv0EQAEBAVzn1q1bmr6OGjWq0r5XRsuWLQkAxcTE8ByzmZmZohrl5OSQra2tpi+nTp0S1YiIKCsriyIjI+natWuiSPIfIR8RSySSaqFLly4gIhw8eBAzZszA6NGjMWDAANjY2KB58+ZYt24d0tPT4e/vz1cDz5s3TzTDH+fCxIrkwsJCXg4ODoadnZ1Gzti4cSMAYP78+Rg7dqwo5rBHxCIDBgwAjPPJrVu3BgBYWlpiz549uHjxoqBdNUuXLkV2djY8PT2xYMECGAwGAKhgZ9iwYXB0dNRcIwBkZGRojq9evcrnpEeMGAEnJyfUq1cPubm5Gj2R2NhYdOvWDa+//jri4+NFseRpED2uRCKR1BS6d++uGZ1duXJFVKF27doRAPL29hZFFBcXx9vOnDmT1qxZQ9u3b6fjx49TYWEh17OxsSE8YfRKRDRnzhwCQAMGDKA//viDJk2aRADo0qVLREQUEhLCz7d8+XJN35/259bT07NCOwC0YcMGjd7AgQMr6Dg6OlJOTg4RER08eJCWL19OQUFBFfQURaGVK1dq7ImIbSTPjrxrEomkRvPNN99QRESEWM3p1KkTAaATJ06IIoqMjCQA5OHhQa1bt67gNI4dO0ZERG5ubhVkjRs3pj///JPbKi8vp169ehEAWrp0KZHq8W9ubq6m7bZt24iIaOLEiTRu3Dhe/zQ4OjoSjH8Izp49S6+88goBIHd3d7px4wbXY3PGS5Ys0bQnYzL7YcOGkZmZGdnZ2ZGFhQUlJSVpdEpLSzXHjLS0NN7fmTNn8nJ8fLyoynF2dtZcP7uvdZ2ne8clEomkhpKZmUmjR48Wq4lUC6nee+89Ki4upq+++oreeustCg0N1cxVssVK7GVra0vR0dEaWwaDgTu1X3/9lYiI+vfvTwCovLycrl69SgDI0tJS0y4xMZHbfRIlJSVkZmZGUC1q8vHxIQA0ZcoUrqeek161apXKwt88fPiQ/P39uU6LFi2opKREVDMJm/eeNWsWkWoku2/fPlGViIj27t3LddhLr9fTjh07RNU6h5yDlUgkLzTu7u6VxhxOSkoCALRv3x56vR7z5s3D7t27MXXqVLRv357rBQQEwDjgABGhoKAA/v7+KkuATqdDQkICDh8+jF69egEAnJ2dMX78eCiKAicnJxBRhX294lafqggICIDBYMC2bdt4jOaWLVsCAJo2bcr11NdrZWXFywwi4skO2rZtCyKCXq+HTqfD8OHDeRQtkYcPHyI9PR0w7sPt3r07l/Xp00el+Q/Xr19HUlIS4uPjYWlpCQAoKSnBoEGDsGrVKlG9biF6XIlEIqkt7Nixg2xsbOj48eOi6LlRXl5O8+bNo+vXr4siDbt27SIA1K9fP3r8+DGvnz59OgGg2NhYXtenTx8+WkxNTeX1jJKSEj7y/fLLL2n8+PGaEWbDhg015yAievToEXl4eFQYjcK43ehJXL58mevHxsaSr68vtWnThoiItmzZIqpXwM3NjTw8PGjGjBnk4OBA9vb25OvrW+nK7xcB6WAlEomkBsCcoDjfPG3aNAJAp0+f5nXq+WRT23eKioqoc+fOBIBmzJhBBoOBDh06REuWLKHw8HDKz88Xm2i2O6lfgYGBoqpJ9u/fz9tkZWVRaWkp9e3bl7Zs2UIAaM+ePWITzu3btyucl7169OhBd+/eFZsQEdH9+/dp9uzZNHv2bFFUI5AOViKRSGoAEyZMoA8++IAePHigqe/duzeFhoZqRpxsBfHLL79cYSRKRHTjxg1q1KgRAaD58+eLYpM0aNBA49jYCBhAhfloU8ydO5frX7hwgYiIUlJSqH79+gRh4VNmZiYZDAZ+rF5YBYBGjBhBoaGh1KBBA7KysjK5gO3evXtkaWnJ22zcuFFUqXbkHKxEIpHUAJYtW4affvqJJ0FgLFq0CFOnToWZmRmvW7lyJbp164Z169Zp6hm5ubl8Lrhhw4ai2CRlZWW8PHjwYAwaNIgfX7t2jZcr46+//uJl1qcjR47wOM1t27bl8qCgIOh0/7gf0X5kZCSmTZuGsrIymJubm5xnXrRoEYqLi/kx2y9ck5AOViKRSGowHTt2FKvg4OCAtLQ0eHt7iyJASKBw8uRJHDp0CHl5eRodNWxBFGPZsmXo2rUrPz59+rRGbopdu3bxMluQtWHDBgDAxx9/DEtLS+Tn58PNzQ3JyclcF1XEmH777bdx9OhRvtCLsX79ek2sZgiLwGoK0sFKJBJJLcPBwYGX169fjx49eqB58+ZwdXXFlClTsG3bNpSXl3OdEydO8PLkyZPh6OiosdGkSRNeNkVhYSGKiooA46pmtpq4tLQUUK2k/uGHH5CdnY2ePXuqWv894mbExsaifv36AIAzZ87w7EiMBw8eYPPmzfyYYWNjI1ZVO9LBSiQSSS3DxcUFmzZtEqtx9epV6PV6+Pj4aB7RLlu2jJdDQkIAAPb29ryOZSWqjCNHjvDy8uXLeZmdo7i4GEFBQdw2Cy0JYz7g48ePA0bn/u677/LQmBcvXkRQUBDXhfHx8t69ewGAh6UEwLc11SSkg5VIJJJahk6nQ0BAANLS0vDpp59izJgxiI2NRUFBAebOnVthtNeuXTte1uv1gHEeddSoUZg8eTI6deqk0q4IS/lnb2+vydnboEEDwDhf+vXXX/N53s6dO3Od3bt38xjP3t7eUBQFAwcO5HJ1/OcDBw5g4cKFAIB69erhzp07XMZGzTUKcdWTRCKRSOoely5dqhA+sbi4mMrKyjR1pnB1dSUAlJaWpqkXsw916NCBkpKS+Ariu3fvkpWVFZcXFBTwtsnJydS5c2eefnDx4sXUuHFjjT31q7J0ftWJHMFKJBKJBC4uLnzEydDr9Xw+tCrYIil1dCwAGDt2LKKioviq4tjYWPTu3Zs/OraysoKHhwdgzHZka2vL23p6eiIiIgLW1taIjo7GlClTKs1mBONIuKah0N+xJiUSiUQi+Vfk5ubCzMys0rCQBoPB5HYi/P0UFXl5eWjevLkoAozOe+TIkdi6dStcXV0xf/58vPnmmygtLYWTkxMAwNraGjk5OTXuMbF0sBKJRCKp0WRnZ2P//v145513NIuv2OriiRMnIiwsTNWiZiAdrEQikUheSHbv3o3s7GyMHDkS1tbWorja+VcOtn///iAi6HQ6lJeX838RYtnc3JzXKYoCg8HA5ep9TawLzB6TK4qisamG6el0Op4BQ6fTQVEUfmyqX2q7RARzc3MYDAbodDpN/4gIZmZm3A47HzuurG/q85qZmXGbajuKovBrZdfObKqPWR9Y/9T71piOSHl5OZ/fMNVvNWIdu5dqOatXX6uoo74fZmZmFa6LtVfLTZ1LbUfdL1P3S41i/Gypr7sq2PnV90q8F2IfxXsgtmXvFdNhdawtO9ZV8hlVXxfTZ7bE+8LK6mtgtsqFz4h4XaIddd8q6xfrG2ujtsuO1fdGfS2m9FkfxetgmPpsqK9RbU+tB+H7zVCfW20Lwu+Iul/qduJ7XVn/1Ih9hYlzqK9BtKl+X9VtmU11mdlDFfdZEb4jal0S3nPWRi03dV71eRTjZ4mdg9lkdU/6LVVfO0N9X9j1q+8ha6P+zWF9E+8XVfFbqtZR90fdX9ZWrbd69Wo4OztzO6b4P8iuruRBi47OAAAAAElFTkSuQmCC;" vertex="1" parent="1">
                    <mxGeometry x="60" y="20" width="472" height="298" as="geometry"/>
                </mxCell>
            </root>
        </mxGraphModel>
    </diagram>
</mxfile>